<?xml version="1.0" encoding="utf-8"?>
<!-- Generator: Adobe Illustrator 24.0.3, SVG Export Plug-In . SVG Version: 6.00 Build 0)  -->
<svg version="1.1" id="Capa_1" xmlns="http://www.w3.org/2000/svg" xmlns:xlink="http://www.w3.org/1999/xlink" x="0px" y="0px"
	 width="600px" height="99px" viewBox="0 0 600 99" style="enable-background:new 0 0 600 99;" xml:space="preserve">
<style type="text/css">
	.st0{fill:#E30613;}
	.st1{fill:none;stroke:#000000;stroke-width:2;stroke-linecap:round;stroke-linejoin:round;stroke-miterlimit:10;}
	.st2{enable-background:new    ;}
	.st3{fill:#FFFFFF;}
</style>
<path class="st0" d="M558.7,58.8H36.5C20.2,58.8,7,45.6,7,29.3l0,0C7,13,20.2-0.2,36.5-0.2h522.2c16.3,0,29.5,13.2,29.5,29.5l0,0
	C588.2,45.6,575,58.8,558.7,58.8z"/>
<path class="st1" d="M430.6,2.8h132.1c16.3,0,29.5,13.2,29.5,29.5l0,0c0,16.3-13.2,29.5-29.5,29.5H213.4"/>
<line class="st1" x1="383.1" y1="2.8" x2="390.2" y2="2.8"/>
<path class="st1" d="M17.4,14C22.8,7.2,31.1,2.8,40.5,2.8h335.3"/>
<path class="st1" d="M200.8,61.8H40.5C24.2,61.8,11,48.6,11,32.3l0,0c0-2.5,0.3-4.9,0.9-7.3"/>
<g>
	<g>
		<path d="M293.9,78c0-0.1-0.1-0.2-0.3-0.3c-0.1-0.1-0.2-0.2-0.3-0.2c-0.1,0-0.2-0.1-0.3,0c-0.1,0-0.2,0-0.3,0.1
			c-0.2,0.2-0.4,0.3-0.6,0.5s-0.4,0.3-0.6,0.4c-0.2,0.2-0.4,0.3-0.6,0.5c-0.2,0.2-0.4,0.3-0.6,0.5c-1,0.8-2,1.7-2.9,2.6
			c-0.9,0.9-1.9,1.8-2.8,2.8c-0.2,0.2-0.4,0.3-0.5,0.5c-0.2,0.2-0.4,0.4-0.6,0.5c0.2-0.7,0.4-1.3,0.6-2c0.2-0.7,0.4-1.3,0.6-2
			c0.2-0.5,0.4-1,0.5-1.4c0.2-0.5,0.4-0.9,0.5-1.5c0-0.2,0.1-0.3,0.2-0.5s0.1-0.4,0.1-0.5c0-0.3-0.1-0.6-0.3-0.7
			c-0.2-0.2-0.4-0.3-0.7-0.4c-0.1,0-0.2-0.1-0.3-0.1s-0.2-0.1-0.3-0.1c-0.1,0-0.2,0-0.3,0c-0.1,0-0.2,0.1-0.3,0.1
			c-0.1,0-0.1,0.1-0.2,0.2c0,0.1-0.1,0.2-0.1,0.2c-0.1,0.1-0.1,0.1-0.2,0.2c-0.1,0.1-0.1,0.1-0.2,0.2c-1.4,1.3-2.6,2.6-3.8,4.1
			c-1.1,1.5-2.3,2.9-3.4,4.5c-0.6,0.8-1.1,1.6-1.6,2.5c-0.5,0.8-1,1.7-1.6,2.6c-0.1,0.2-0.2,0.3-0.4,0.5c-0.1,0.2-0.2,0.4-0.2,0.5
			c0,0.2,0,0.3,0.1,0.4c0.1,0.1,0.2,0.2,0.4,0.3s0.3,0.1,0.5,0.2s0.4,0,0.5,0c0.4-0.1,0.6-0.2,0.8-0.5c0.1-0.2,0.1-0.4,0.2-0.6
			c0-0.2,0.1-0.4,0.1-0.6c0.1-0.3,0.2-0.7,0.4-1c0.3-0.6,0.7-1.2,1.1-1.8c0.4-0.6,0.7-1.2,1.1-1.8c0.4-0.6,0.8-1.2,1.2-1.7
			c0.4-0.6,0.8-1.1,1.2-1.6c0.6-0.8,1.3-1.6,1.9-2.4c0.7-0.8,1.3-1.5,2-2.2c-0.2,0.8-0.3,1.5-0.5,2.2c-0.2,0.7-0.4,1.4-0.7,2.2
			c-0.1,0.4-0.2,0.7-0.3,1.1c-0.1,0.4-0.2,0.7-0.3,1.1c-0.1,0.2-0.1,0.3-0.1,0.5c0,0.2-0.1,0.4-0.1,0.6c0,0.2-0.1,0.4-0.1,0.6
			c0,0.2-0.1,0.4-0.1,0.6c0,0.1,0,0.2,0,0.2c0,0.1,0,0.2,0,0.2c0,0.1,0.1,0.1,0.1,0.1s0.2,0.1,0.3,0.1c0.1,0,0.2,0,0.3,0
			c0.1,0,0.2,0,0.3,0c0.1,0,0.2-0.1,0.3-0.3s0.2-0.3,0.3-0.4c0.3-0.3,0.5-0.7,0.8-1s0.6-0.6,0.8-0.9c1-1.1,2-2.1,3-3.1
			c1-1,2.1-1.9,3.1-2.8c0.2-0.2,0.5-0.4,0.7-0.5c0.2-0.2,0.5-0.3,0.7-0.5c-0.2,0.8-0.4,1.6-0.7,2.4c-0.3,0.8-0.5,1.6-0.8,2.4
			c-0.1,0.3-0.3,0.8-0.4,1.4c-0.2,0.6-0.4,1.3-0.5,2c-0.2,0.7-0.4,1.4-0.5,2s-0.3,1.2-0.3,1.6c0,0.1,0,0.3-0.1,0.4
			c0,0.1,0,0.2,0,0.3c0.1,0.3,0.3,0.5,0.6,0.6c0.2,0,0.3,0,0.4-0.1c0.1-0.1,0.1-0.4,0.2-0.8c0.1-0.5,0.2-1.1,0.4-1.8
			c0.2-0.7,0.4-1.5,0.6-2.2c0.2-0.8,0.4-1.5,0.6-2.2c0.2-0.7,0.4-1.3,0.5-1.7c0.2-0.4,0.3-0.8,0.4-1.3s0.3-0.9,0.4-1.3
			c0.1-0.3,0.2-0.6,0.3-1c0.1-0.3,0.2-0.6,0.3-1c0-0.1,0.1-0.2,0.1-0.4C293.9,78.2,293.9,78.1,293.9,78z"/>
		<path d="M299.9,83.1c0.2-0.5,0.4-1,0.6-1.5c0.2-0.4,0.3-0.7,0.5-1.1c0.2-0.3,0.4-0.7,0.5-1c0.1-0.1,0.2-0.3,0.3-0.4
			c0.1-0.1,0.2-0.3,0.2-0.4c0-0.1,0-0.3-0.1-0.4c-0.1-0.1-0.2-0.2-0.3-0.3c-0.1-0.1-0.3-0.2-0.4-0.2c-0.2,0-0.3-0.1-0.4,0
			c-0.1,0-0.2,0.1-0.4,0.1c-0.1,0.1-0.2,0.1-0.3,0.2c0,0.1,0,0.1,0,0.2c0,0.1,0,0.1,0,0.2c-0.1,0.3-0.2,0.5-0.3,0.8
			c-0.1,0.3-0.2,0.5-0.3,0.8c-0.1,0.3-0.2,0.6-0.3,0.9c-0.1,0.3-0.2,0.6-0.3,0.8c-0.2,0.5-0.5,1.1-0.7,1.6c-0.2,0.6-0.4,1.1-0.7,1.7
			c-0.2,0.6-0.4,1.1-0.6,1.7c-0.2,0.6-0.4,1.2-0.6,1.8c-0.1,0.3-0.2,0.6-0.3,0.9c-0.1,0.3-0.2,0.6-0.3,0.9c0,0.1-0.1,0.3-0.1,0.5
			c0,0.2-0.1,0.3-0.1,0.5c0,0.2-0.1,0.3-0.1,0.4c0,0.1,0,0.2,0.1,0.3c0,0,0.1,0.1,0.1,0.1s0.1,0,0.1,0c0,0,0.1,0.1,0.1,0.1
			c0,0,0.1,0.1,0.1,0.1c0.1,0,0.1,0,0.2,0c0.1,0,0.1,0,0.1,0c0,0,0.1,0,0.1,0c0-0.2,0.1-0.3,0.1-0.5c0-0.2,0.1-0.3,0.2-0.5
			c0-0.1,0.1-0.2,0.1-0.3c0-0.1,0.1-0.2,0.1-0.3c0.1-0.3,0.2-0.5,0.3-0.8c0.1-0.3,0.2-0.5,0.3-0.8c0.1-0.3,0.2-0.5,0.3-0.8
			c0.1-0.3,0.2-0.5,0.3-0.8c0.1-0.3,0.2-0.5,0.3-0.8c0.1-0.3,0.2-0.5,0.3-0.8c0.2-0.5,0.4-1,0.6-1.5
			C299.5,84.1,299.7,83.6,299.9,83.1z"/>
		<path d="M296.6,78.4c0.3-0.1,0.6-0.2,0.9-0.3c0.4-0.2,0.9-0.4,1.3-0.5c0.4-0.1,0.9-0.3,1.3-0.4c0.2,0,0.3-0.1,0.5-0.1
			c0.2,0,0.3-0.1,0.4-0.1c0.6-0.1,1.2-0.3,1.8-0.4c0.6-0.1,1.2-0.2,1.8-0.4c0.3-0.1,0.6-0.1,0.9-0.2c0.3,0,0.6-0.1,0.9-0.1
			c0.3,0,0.6,0,0.9,0c0.3,0,0.6,0.1,0.9,0.1c0,0,0,0,0,0c0,0,0,0,0.1,0v0c0,0,0,0,0,0c0,0,0,0,0-0.1c0-0.1,0-0.1,0,0s0,0,0,0
			c0,0,0-0.1,0-0.1c0,0,0-0.1,0-0.1c0,0,0.1,0,0.1,0c0,0,0,0,0-0.1c0,0-0.1-0.1-0.1-0.1c0-0.1,0-0.1,0.1-0.1c0,0,0,0,0,0
			c-0.2-0.2-0.4-0.3-0.5-0.4s-0.4-0.1-0.6-0.2c-0.2,0-0.3,0-0.5,0s-0.3,0-0.4,0c-0.6,0-1.3,0-1.9,0.1s-1.2,0.2-1.8,0.3
			c-0.3,0.1-0.6,0.1-0.9,0.2c-0.3,0.1-0.6,0.1-0.9,0.2c-0.6,0.2-1.2,0.4-1.8,0.7s-1.2,0.5-1.8,0.8c-0.4,0.2-0.9,0.4-1.4,0.6
			c-0.5,0.2-0.9,0.4-1.4,0.7c-0.2,0.1-0.3,0.2-0.5,0.3c-0.2,0.1-0.3,0.2-0.4,0.4c0,0.1,0,0.2,0,0.3c0,0.1,0.1,0.2,0.1,0.2
			c0.1,0.1,0.3,0.1,0.5,0c0.2-0.1,0.3-0.1,0.5-0.2c0.2-0.1,0.3-0.1,0.5-0.2s0.3-0.2,0.5-0.2C296,78.7,296.3,78.6,296.6,78.4z"/>
		<path d="M316.9,86.5c0.2,0,0.3-0.1,0.5-0.1c0,0,0,0,0-0.1c-0.1,0-0.2,0-0.2,0c0.2,0,0.3-0.1,0.4-0.1s0.2,0,0.3-0.1
			c-0.1,0-0.1,0-0.2,0c-0.1,0-0.1,0-0.1,0c0.2,0,0.3,0,0.4-0.1s0.2-0.1,0.3-0.1c-0.1,0-0.1,0-0.2,0c-0.1,0-0.1,0-0.2-0.1
			c0,0,0,0,0.1,0c0,0,0.1,0,0.1-0.1c-0.6,0.1-1.1,0.1-1.5,0.1c-0.4,0-0.8,0.1-1.2,0.1c-0.4,0-0.8,0.1-1.2,0.2
			c-0.4,0.1-0.9,0.2-1.4,0.3c-0.2-0.5-0.4-0.9-0.7-1.2c-0.3-0.3-0.7-0.6-1.1-0.8c-0.4-0.2-0.9-0.3-1.4-0.4c-0.5-0.1-1.1-0.2-1.6-0.2
			c-0.6,0-1.2,0-1.9,0.1c-0.7,0.1-1.3,0.1-1.9,0.1c-0.1,0-0.3,0-0.4-0.1c0.2-0.6,0.4-1.1,0.7-1.5s0.7-0.9,1-1.2
			c0.1-0.1,0.2-0.3,0.3-0.4c0.1-0.1,0.3-0.3,0.4-0.3c0.6-0.4,1.2-0.8,2-1.1c0.2-0.1,0.4-0.2,0.5-0.3c0.2-0.1,0.3-0.2,0.5-0.3
			c0.2-0.1,0.5-0.2,0.8-0.2c0.3-0.1,0.6-0.1,0.8-0.1c0,0.2-0.1,0.3-0.1,0.5c0,0.1-0.1,0.3-0.1,0.4c0,0.1-0.1,0.3-0.1,0.5
			c0,0.2,0,0.3,0,0.5c0.1,0,0.1,0,0.2,0s0.1-0.1,0.1-0.1c0,0,0.1,0,0.1,0c0,0,0,0,0.1,0c0.1,0,0.1,0,0.2,0c0.1,0,0.1,0,0.2,0
			c0,0,0-0.1,0-0.1s0-0.1,0.1,0c0-0.1,0-0.2,0.1-0.2c0-0.1,0.1-0.2,0.1-0.2c0.1-0.2,0.2-0.4,0.3-0.6c0-0.2,0.1-0.3,0.1-0.4
			c0-0.1,0.1-0.2,0.1-0.4c0,0,0,0,0,0c0,0,0,0-0.1,0c0-0.1,0.1-0.2,0.1-0.3c0-0.1,0-0.2,0-0.3c-0.1,0-0.2-0.1-0.2-0.1
			c0-0.1-0.1-0.1-0.1-0.1c-0.2-0.2-0.4-0.2-0.6-0.2c-0.2,0-0.5,0-0.8,0c-0.1,0-0.3,0-0.4,0c-0.2,0-0.3,0-0.4,0.1
			c-0.5,0.1-0.9,0.2-1.4,0.4c-0.4,0.2-0.8,0.4-1.2,0.6c-1.4,0.8-2.7,1.9-3.8,3.2c-0.1,0.1-0.2,0.3-0.3,0.4c-0.1,0.2-0.2,0.3-0.3,0.6
			c-0.1,0.2-0.2,0.4-0.3,0.6c-0.1,0.2-0.1,0.5-0.1,0.7c0,0.2,0,0.4,0.1,0.5c0.1,0.1,0.2,0.2,0.3,0.3c0.1,0.1,0.2,0.1,0.3,0.1
			c0.1,0,0.2,0,0.3,0.1c0.1,0,0.1,0.1,0.2,0.1c0.1,0,0.1,0,0.2,0.1c0.2,0.1,0.4,0.1,0.6,0.1c0.2,0,0.4,0,0.6-0.1
			c0.6-0.1,1.2-0.1,1.9-0.2c0.6-0.1,1.2-0.1,1.8-0.1c0.5,0,1,0.1,1.4,0.3c0.5,0.2,0.8,0.4,1.1,0.6c0.2,0.2,0.3,0.4,0.4,0.6
			c0.1,0.2,0.2,0.5,0.1,0.7c-1.2,0.4-2.4,0.8-3.4,1.2c-1.1,0.4-2.1,0.9-3,1.4s-1.9,1.2-2.8,1.9c-0.9,0.7-1.7,1.6-2.6,2.5
			c-0.1,0.2-0.3,0.4-0.4,0.6c-0.1,0.2-0.2,0.4-0.2,0.6c0,0.1,0,0.2,0.1,0.3c0,0.1,0.1,0.1,0.2,0.1c0.1,0,0.2,0,0.3,0
			c0.1,0,0.2,0,0.3,0c0.1,0,0.2,0.1,0.3,0.1c0.1,0,0.2,0,0.3,0c0.2,0,0.5-0.1,0.9-0.2c0.4-0.1,0.7-0.2,1.1-0.4
			c0.4-0.1,0.7-0.2,0.9-0.3c0.3-0.1,0.4-0.1,0.4-0.1c0.6-0.3,1-0.5,1.3-0.6c0.2-0.1,0.4-0.2,0.4-0.2c0,0,0.1,0,0.1,0c0,0,0,0,0.1,0
			c0.1,0,0.3-0.2,0.6-0.3c0.3-0.2,0.8-0.4,1.5-0.8c0.2-0.1,0.4-0.2,0.5-0.3c0.2-0.1,0.3-0.2,0.4-0.4c0.2-0.1,0.3-0.1,0.4-0.2
			c0.1-0.1,0.2-0.2,0.3-0.2c0,0,0.1,0,0-0.1c0,0,0,0,0,0c0.1,0,0.1,0,0.2-0.1c0,0,0.1-0.1,0.1-0.1c0.5-0.4,1-0.8,1.4-1.2
			c0.2-0.2,0.3-0.3,0.5-0.5c0.1-0.1,0.2-0.2,0.3-0.3c0.1-0.1,0.1-0.2,0.2-0.3c0.1-0.2,0.2-0.4,0.3-0.6c0.1-0.2,0.2-0.4,0.3-0.6
			c0-0.1,0.1-0.1,0.2-0.1c0.1,0,0.2,0,0.3-0.1l0.1-0.1c0.2-0.1,0.3-0.1,0.5-0.1c0.2,0,0.4-0.1,0.5-0.1c0,0,0.1,0,0.1,0
			c0,0,0.1,0,0.1-0.1c0.2-0.1,0.3-0.1,0.3-0.1c0,0,0.1,0,0.1,0c0.1,0,0.2,0,0.4-0.1c0.2,0,0.5-0.1,1.1-0.2
			C316.6,86.5,316.8,86.5,316.9,86.5z M311.1,88C311.1,88,311.1,88,311.1,88c0.1,0,0.1,0,0.1,0c-0.2,0.6-0.5,1.2-1.1,1.7
			c-0.6,0.6-1.2,1.1-2,1.6c-0.8,0.5-1.5,0.9-2.4,1.3c-0.8,0.4-1.6,0.7-2.3,1s-1.2,0.4-1.6,0.5c-0.4,0.1-0.6,0.1-0.5,0
			c0.1-0.1,0.1-0.1,0.1-0.2c0-0.1,0.1-0.1,0.2-0.2c0.3-0.3,0.5-0.5,0.7-0.6c0.2-0.2,0.4-0.3,0.5-0.5c0.2-0.2,0.4-0.3,0.7-0.5
			c0.3-0.2,0.7-0.5,1.2-0.9c0.5-0.3,1-0.6,1.3-0.8c0.4-0.2,0.7-0.4,1-0.6c0.3-0.2,0.6-0.3,0.9-0.5c0.3-0.1,0.6-0.3,0.9-0.4
			s0.7-0.3,1-0.4c0.4-0.1,0.8-0.3,1.3-0.5C311.2,87.9,311.2,88,311.1,88z M315.9,86.6C315.9,86.6,315.8,86.6,315.9,86.6
			C315.8,86.6,315.9,86.6,315.9,86.6C315.9,86.6,315.9,86.6,315.9,86.6z"/>
		<path d="M305.5,93.9C305.5,93.8,305.5,93.8,305.5,93.9C305.5,93.9,305.5,93.9,305.5,93.9z"/>
		<path d="M344.1,83.9c0.1,0,0.1,0,0.1,0c0,0,0,0,0.1,0c0-0.1,0.1-0.1,0.2-0.1c0.1,0,0.2-0.1,0.2-0.2c0,0,0,0,0,0c0,0,0,0,0,0
			c0,0,0-0.1,0.1-0.1s0.1-0.1,0.1-0.1c0.1,0,0.1,0,0.1,0c0-0.1,0-0.1,0.1,0c0,0,0,0,0-0.1c0,0,0,0,0-0.1c0.1-0.1,0.2-0.2,0.2-0.3
			c0-0.2,0-0.3-0.1-0.4c0,0,0,0-0.1,0s0,0-0.1,0c-0.1-0.1-0.2-0.1-0.3-0.1c-0.1,0-0.2,0.1-0.3,0.2c-0.1,0.1-0.2,0.2-0.3,0.3
			S344,83,344,83.1c0,0.1,0,0.1-0.1,0.2c0,0.1,0,0.2-0.1,0.3c0,0.1,0,0.2,0,0.2C344,83.8,344,83.9,344.1,83.9z"/>
		<path d="M355.8,85.9C355.8,85.9,355.8,85.9,355.8,85.9c0.1-0.2,0.2-0.2,0.3-0.3c0.1,0,0.3-0.1,0.4-0.2c-0.1,0-0.1,0-0.1,0
			c0,0,0.1,0,0.1-0.1c0,0,0.1,0,0.1-0.1c0,0,0,0,0,0c0-0.1,0.1-0.1,0.1-0.1c0,0,0.1,0,0.1-0.1c0,0,0,0-0.1,0c0,0,0,0-0.1,0
			c0,0,0,0,0,0c0,0,0,0,0,0c0,0,0,0,0,0s0,0,0,0c0,0,0.1,0,0.1,0c0,0,0,0,0.1,0c0,0,0,0,0,0s0,0,0,0c-0.3,0.1-0.6,0.2-0.9,0.3
			c-0.3,0.1-0.6,0.3-0.8,0.4c0,0,0,0,0,0c-0.1,0-0.2,0-0.3,0.1c-0.1,0-0.2,0.1-0.2,0.2c0,0-0.1,0-0.1,0s-0.1,0.1-0.1,0.1h-0.1
			c-0.1,0.1-0.2,0.2-0.4,0.3c-0.2,0.1-0.4,0.2-0.7,0.3c-0.2,0.1-0.5,0.3-0.7,0.4c-0.2,0.1-0.4,0.3-0.4,0.4c0-0.2,0.1-0.4,0.2-0.6
			c0.1-0.2,0.1-0.4,0.2-0.6c0.1-0.1,0.1-0.2,0.1-0.4c0-0.1,0.1-0.3,0.1-0.4c0-0.1,0-0.2,0-0.3s-0.1-0.2-0.2-0.3c0,0-0.1,0-0.1,0
			s-0.1,0-0.1,0c-0.1,0-0.1,0-0.1,0c0,0-0.1,0-0.1,0c-0.1,0-0.2,0-0.2,0.1s-0.1,0.1-0.1,0.2c-0.1,0.1-0.1,0.1-0.1,0.1
			c0,0,0,0.1,0,0.1c0,0.1,0,0.1-0.1,0.2s-0.2,0.1-0.2,0.2c-0.1,0.1-0.1,0.1-0.2,0.2c-0.1,0.1-0.2,0.1-0.2,0.2
			c-0.3,0.2-0.6,0.5-0.9,0.7c-0.3,0.2-0.6,0.5-0.9,0.7c-0.1,0-0.1,0.1-0.2,0.1c0,0-0.1,0.1-0.2,0.1c-0.1,0.1-0.2,0.1-0.3,0.2
			c-0.1,0.1-0.2,0.1-0.3,0.2c0,0-0.1,0-0.1,0c0,0-0.1,0-0.1,0c0,0,0-0.1,0-0.1c0,0,0-0.1,0-0.1c0.1-0.2,0.2-0.4,0.3-0.6
			c0.1-0.2,0.2-0.4,0.3-0.5c0.1-0.1,0.2-0.2,0.3-0.4c0.1-0.1,0.2-0.2,0.3-0.3c0.1-0.1,0.1-0.2,0.2-0.3c0.1-0.1,0.2-0.2,0.2-0.2
			c0-0.1,0.1-0.2,0.2-0.3c0.1-0.1,0.2-0.1,0.2-0.2c0.1-0.1,0.1-0.2,0.2-0.3c0.1-0.1,0.2-0.1,0.3-0.2c0.1-0.1,0.2-0.2,0.4-0.3
			c0.2-0.1,0.3-0.2,0.4-0.3c0.1-0.1,0.2-0.2,0.2-0.3c0-0.1-0.1-0.1-0.3-0.1c0,0-0.1,0-0.1,0c-0.1,0-0.1,0-0.2,0.1
			c-0.2,0.1-0.3,0.1-0.5,0.2c-0.2,0.1-0.3,0.2-0.5,0.3c0,0-0.1,0-0.1,0.1c-0.1,0-0.1,0.1-0.2,0.1c-0.1,0-0.1,0.1-0.2,0.1
			c-0.1,0-0.1,0.1-0.1,0.1c-0.1,0.1-0.2,0.2-0.4,0.4c-0.2,0.2-0.4,0.4-0.6,0.7c-0.2,0.2-0.3,0.3-0.4,0.5c0,0,0,0,0,0
			c0-0.1,0-0.1,0,0c0,0,0,0.1-0.1,0.1c-0.2,0-0.3,0.1-0.4,0.1s-0.2,0.1-0.3,0.2c-0.1,0-0.2,0.1-0.3,0.1c-0.1,0.1-0.2,0.1-0.3,0.1
			c-0.4,0.1-0.7,0.3-1.1,0.4s-0.7,0.3-1,0.5s-0.5,0.2-0.7,0.3c-0.2,0.1-0.3,0.1-0.4,0.1c0,0,0-0.1,0-0.3c0-0.1,0.1-0.3,0.2-0.5
			c0.1-0.2,0.2-0.4,0.3-0.6c0.1-0.2,0.2-0.4,0.3-0.6c0,0,0,0,0-0.1s0,0,0-0.1c0,0,0,0,0,0c0,0,0,0,0,0c0-0.1,0-0.1,0.1-0.2
			c0,0,0-0.1,0.1-0.1c0.1-0.1,0.1-0.2,0.1-0.3c0-0.1,0-0.1,0-0.2c0-0.1,0-0.1,0-0.2c0-0.1,0-0.1-0.1-0.2s-0.1-0.1-0.1-0.1
			c0,0-0.1,0-0.2,0c-0.1,0-0.1,0-0.2,0c-0.1,0-0.2,0.1-0.3,0.1c-0.2,0.3-0.4,0.6-0.5,0.9c-0.1,0-0.1,0-0.2,0c-0.1,0-0.2,0-0.3,0
			c-0.1,0-0.2,0-0.4,0.1s-0.3,0.1-0.6,0.1c-0.2,0-0.3,0-0.4,0c-0.1,0-0.3,0-0.4,0.1c-0.2,0-0.4,0.1-0.7,0.1c-0.3,0-0.5,0.1-0.8,0.2
			c-0.3,0.1-0.5,0.1-0.8,0.2c-0.3,0.1-0.5,0.1-0.7,0.1c0.2-0.2,0.4-0.5,0.8-1c0.3-0.4,0.6-0.9,0.9-1.4c0.3-0.5,0.5-1,0.7-1.5
			c0.2-0.5,0.3-0.9,0.2-1.3c0-0.3-0.1-0.5-0.2-0.8c-0.1-0.2-0.2-0.5-0.3-0.7c-0.1-0.2-0.3-0.4-0.4-0.6c-0.2-0.2-0.4-0.4-0.5-0.5
			c-0.4-0.3-0.8-0.5-1.3-0.7c-0.5-0.1-1.1-0.3-1.6-0.3c-0.6-0.1-1.2-0.1-1.7-0.1s-1.1,0-1.6,0.1c-0.3,0-0.7,0-1,0.1
			s-0.6,0.1-0.9,0.1c-0.1-0.2-0.2-0.3-0.4-0.5c-0.1-0.1-0.4-0.2-0.6-0.3c0,0-0.1,0.1-0.1,0.1c0,0-0.1,0.1-0.2,0.1v0c0,0,0,0,0,0
			c-0.1,0-0.2,0.1-0.2,0.1c0,0.1-0.1,0.2-0.1,0.2v0.1c-0.1,0.1-0.1,0.1-0.1,0.2c0,0.1-0.1,0.2-0.1,0.2c-0.8,0.2-1.7,0.4-2.5,0.8
			c-0.8,0.3-1.6,0.6-2.3,0.9c-0.3,0.1-0.7,0.3-1,0.4c-0.3,0.1-0.6,0.3-0.9,0.4c-0.2,0.1-0.4,0.2-0.7,0.4c-0.2,0.1-0.4,0.2-0.6,0.3
			c-0.1,0.1-0.2,0.1-0.3,0.1c-0.1,0-0.2,0.1-0.2,0.1c0,0-0.1,0.1-0.2,0.2s-0.2,0.2-0.2,0.2c0,0,0,0.1,0.1,0.2
			c0.1,0.1,0.1,0.1,0.2,0.2c0.1,0.1,0.1,0.1,0.2,0.1c0.1,0,0.2,0,0.3,0.1c0,0,0.1,0.1,0.1,0.1c0,0,0.1,0,0.1,0c0.2,0,0.4,0,0.5-0.1
			s0.2-0.2,0.4-0.3c0.1-0.1,0.2-0.2,0.3-0.2c0.1,0,0.3-0.1,0.4-0.2c0.1,0,0.3-0.1,0.4-0.2c0.1-0.1,0.2-0.2,0.3-0.2
			c0.4-0.3,0.8-0.5,1.1-0.6c0.3-0.1,0.6-0.3,0.9-0.4c0.3-0.1,0.7-0.3,1.1-0.4c0.4-0.2,1-0.4,1.7-0.6c0.1,0,0.1-0.1,0.1-0.1
			s0.1,0,0.1,0.1c0,0.1,0,0.2-0.1,0.2c0,0-0.1,0.1-0.1,0.2l-0.3,0.7c-0.3,0.7-0.6,1.4-0.8,2.1c-0.3,0.7-0.5,1.4-0.8,2.2
			c0,0.1-0.1,0.1-0.1,0.2c0,0.1,0,0.2,0,0.3c-0.1,0.1-0.1,0.2-0.1,0.3c-0.1,0.3-0.2,0.6-0.3,1c-0.1,0.4-0.3,0.7-0.4,1.1
			c-0.1,0.4-0.3,0.8-0.4,1.1c-0.1,0.4-0.2,0.7-0.3,1c-0.6,0.3-1.3,0.6-1.8,0.8c-0.6,0.2-1.1,0.5-1.7,0.7c-0.5,0.3-1.1,0.5-1.6,0.9
			s-1.1,0.7-1.6,1.1c-0.1,0.1-0.1,0.2-0.2,0.2c-0.1,0.1-0.2,0.1-0.2,0.2c-0.2,0.1-0.3,0.3-0.5,0.5s-0.3,0.4-0.4,0.6
			c0,0.1-0.1,0.2-0.1,0.2c0,0.1-0.1,0.2-0.2,0.3c-0.1,0.3,0,0.5,0.1,0.7c0.1,0.1,0.3,0.3,0.5,0.3c0.1,0,0.2,0.1,0.3,0.1
			c0.1,0,0.2,0,0.2,0.1l0.2,0.1c0.6,0.2,1.2,0.2,1.8,0.2c0.6,0,1.2-0.1,1.7-0.2c0.1,0,0.2,0,0.2-0.1c0.1,0,0.2-0.1,0.3-0.1
			c0,0,0,0,0,0c0,0,0,0,0,0c0.2,0,0.4,0,0.6-0.1c0.2-0.1,0.3-0.1,0.5-0.2c0,0,0.1,0,0.1-0.1c0,0,0,0,0.1-0.1
			c0.4-0.1,0.8-0.2,1.1-0.4c0.4-0.1,0.7-0.3,1.1-0.5h0.1c0.2-0.1,0.3-0.2,0.5-0.2s0.3-0.1,0.5-0.3c0.1,0,0.1,0,0.1,0s0.1,0,0.1,0
			c0.1-0.1,0.2-0.1,0.3-0.2c0.1,0,0.2-0.1,0.3-0.1c0.1,0,0.1-0.1,0.2-0.1c0.1,0,0.2-0.1,0.3-0.1c0,0,0,0,0,0c0,0,0,0,0,0
			c0.2-0.1,0.4-0.2,0.6-0.2c0.2-0.1,0.4-0.1,0.5-0.2c0.3-0.1,0.5-0.2,0.7-0.3c0.2-0.1,0.4-0.3,0.6-0.4c0.1,0,0.2,0,0.3-0.1
			c0.1-0.1,0.1-0.1,0.2-0.1c0.4-0.2,0.7-0.3,1-0.6c0.3-0.2,0.6-0.4,0.9-0.6c0.3-0.2,0.6-0.4,0.8-0.6c0.3-0.2,0.6-0.4,0.8-0.6
			c0.1-0.1,0.2-0.1,0.3-0.2s0.2-0.1,0.3-0.2c0.1-0.1,0.2-0.2,0.3-0.2c0.1,0,0.2-0.1,0.2-0.2c0.1-0.1,0.2-0.1,0.3-0.2
			c0.1-0.1,0.2-0.2,0.3-0.3c0.2-0.1,0.3-0.2,0.5-0.4c0.2-0.1,0.3-0.3,0.5-0.5c0.2-0.2,0.3-0.3,0.4-0.4c0.1-0.1,0.2-0.2,0.3-0.2v0
			l0,0c0.2,0,0.4-0.1,0.7-0.1c0.3-0.1,0.6-0.1,1-0.2c0.3-0.1,0.7-0.1,1-0.2c0.3-0.1,0.5-0.1,0.7-0.1c0,0,0.2,0,0.5-0.1
			c0.3,0,0.5-0.1,0.8-0.1c0.3-0.1,0.5-0.1,0.8-0.2c0.1,0,0.2-0.1,0.2-0.1c-0.1,0.1-0.1,0.2-0.2,0.4c0,0.1-0.1,0.2-0.1,0.4
			c-0.1,0.1-0.1,0.2-0.2,0.4c0,0.1-0.1,0.2-0.1,0.3c0,0.1-0.1,0.2-0.1,0.3c-0.1,0.2-0.1,0.4-0.2,0.6c0,0.2,0,0.3,0,0.5
			c0.1,0.2,0.2,0.3,0.4,0.3c0.2,0,0.4,0.1,0.6,0.1c0,0,0.1,0,0.1,0c0,0,0,0,0.1-0.1c0.1,0,0.3,0,0.5-0.2c0.3-0.2,0.6-0.3,0.9-0.6
			c0.3-0.2,0.6-0.4,0.9-0.6c0.3-0.2,0.5-0.3,0.7-0.4c0.2-0.1,0.3-0.2,0.5-0.3c0.2-0.1,0.3-0.2,0.5-0.3c0.2-0.1,0.3-0.2,0.4-0.2
			c0,0,0.1,0,0.1-0.1c0,0,0,0.1,0,0.1c0,0,0,0,0,0c0,0,0,0,0,0c0,0.1-0.1,0.1-0.1,0.2c0,0.1-0.1,0.2-0.1,0.2c0,0.1-0.1,0.2-0.1,0.3
			c0,0.1,0,0.2-0.1,0.4c0,0.1,0,0.2,0,0.4c0,0.1,0,0.2,0.1,0.3c0.1,0,0.1,0,0.1,0s0,0,0.1,0.1h0c0,0,0.1,0,0.2,0.1
			c0.1,0,0.3,0,0.4,0c0.1,0,0.3,0,0.4,0c0.1,0,0.2,0,0.2,0c0.1,0,0.2,0,0.3-0.1s0.2-0.1,0.4-0.2c0.1-0.1,0.2-0.1,0.4-0.2
			s0.2-0.1,0.2-0.2c0.1-0.1,0.2-0.2,0.4-0.3c0.1-0.1,0.3-0.2,0.4-0.3c0,0,0.1-0.1,0.1-0.1c0,0,0.1-0.1,0.1-0.1c0,0,0.1-0.1,0.1-0.1
			c0,0,0,0,0.1,0c0-0.1,0.1-0.1,0.1-0.1c0,0.1,0,0.2,0,0.2c0,0.1,0,0.1-0.1,0.2c0,0.1-0.1,0.2-0.1,0.2c0,0,0,0.1-0.1,0.1
			s0,0.1-0.1,0.1c0,0-0.1,0.1-0.1,0.2c0,0,0,0.1,0,0.2c0,0.1-0.1,0.2-0.1,0.2c0,0,0,0-0.1,0.1c0,0-0.1,0.1-0.3,0.2
			c-0.1,0.1-0.2,0.2-0.4,0.3c-0.2,0.1-0.3,0.3-0.4,0.3c-0.6,0.6-1.3,1.2-2,1.9c-0.7,0.7-1.4,1.5-2,2.2s-1.1,1.6-1.5,2.4
			c-0.4,0.8-0.6,1.6-0.5,2.3c0,0,0,0.1,0.1,0.2c0.1,0.1,0.2,0.3,0.4,0.4c0.2,0.1,0.3,0.1,0.5,0.1c0.2,0,0.3-0.1,0.5-0.1
			c0.9-0.4,1.7-0.9,2.4-1.6c0.7-0.7,1.3-1.5,1.8-2.4c0.5-0.9,1-1.8,1.4-2.7c0.4-1,0.8-1.9,1.2-2.7c0.1-0.2,0.1-0.3,0.2-0.5
			c0-0.2,0.1-0.3,0.3-0.4c0-0.1,0.1-0.2,0.2-0.2c0.1,0,0.2-0.1,0.3-0.2l0.2-0.1c0.1-0.1,0.1-0.1,0.2-0.1c0.1,0,0.1-0.1,0.2-0.1
			c0.1-0.1,0.2-0.2,0.4-0.3s0.3-0.2,0.4-0.3c0.1-0.1,0.3-0.2,0.5-0.3c0.2-0.1,0.4-0.3,0.7-0.5c0.2-0.2,0.4-0.3,0.6-0.5
			C355.6,86.1,355.8,86,355.8,85.9z M334.2,88c-0.2,0.2-0.4,0.3-0.6,0.5c-0.2,0.1-0.3,0.3-0.5,0.4s-0.3,0.2-0.4,0.2
			c-0.1,0.1-0.2,0.2-0.4,0.3c-0.2,0.2-0.5,0.3-0.8,0.5c-0.3,0.2-0.6,0.4-1,0.6c-0.3,0.2-0.7,0.4-1,0.6c-0.3,0.2-0.6,0.4-0.9,0.5
			c-0.3,0.1-0.5,0.2-0.7,0.3c-0.1,0-0.1,0.1-0.2,0.1c-0.1,0.1-0.2,0.1-0.3,0.1c0,0-0.1,0.1-0.1,0.1c0,0-0.1,0.1-0.1,0.1
			c0,0,0,0-0.1,0c0,0,0,0-0.1,0c-0.6,0.3-1.2,0.7-1.8,0.9c-0.6,0.3-1.2,0.6-1.9,0.9c-0.1,0-0.2,0-0.2,0.1c-0.1,0-0.1,0.1-0.2,0.1
			c-0.1,0-0.1,0-0.2,0.1c-0.1,0-0.1,0.1-0.1,0.1c-0.5,0.2-1.1,0.3-1.6,0.5c-0.5,0.2-1.1,0.3-1.8,0.4c0,0-0.1,0-0.1,0
			c0,0-0.1,0-0.2,0c-0.1,0-0.1,0-0.2,0c-0.1,0-0.2,0-0.3,0.1c-0.1,0-0.3,0-0.4,0c-0.1,0-0.3,0-0.4,0c-0.1,0-0.3,0-0.4,0
			c-0.1,0-0.3-0.1-0.4-0.2c0-0.2,0.1-0.4,0.2-0.5c0.1-0.1,0.2-0.3,0.2-0.4c0,0,0,0-0.1,0c0,0-0.1,0-0.1,0c0.1-0.1,0.1-0.2,0.2-0.2
			c0.1,0,0.1-0.1,0.2-0.1c0.1,0,0.1-0.1,0.2-0.1s0.1-0.1,0.2-0.2c0,0,0,0,0-0.1c0,0,0,0,0-0.1c0.3-0.3,0.6-0.5,0.9-0.6
			c0.3-0.2,0.6-0.4,0.9-0.6c0.5-0.3,0.9-0.5,1.3-0.7c0.4-0.2,0.9-0.3,1.4-0.5c0.1-0.1,0.1-0.1,0.2-0.1c0.1,0,0.2,0,0.2-0.1
			c0.2-0.1,0.3-0.2,0.5-0.2s0.3-0.2,0.4-0.2c0,0.2-0.1,0.5-0.1,0.7c0,0.2-0.1,0.4-0.1,0.6c0,0.2-0.1,0.4-0.1,0.5c0,0.1,0,0.2,0,0.3
			c0,0.1,0,0.2,0.1,0.3c0.1,0,0.2,0,0.3,0c0.1,0,0.2,0,0.3,0c0.1,0,0.2,0,0.2-0.1c0.1,0,0.1-0.1,0.2-0.3c0,0,0,0,0.1,0c0,0,0,0,0,0
			c0.2-0.3,0.3-0.7,0.4-1s0.3-0.7,0.4-1.1c0.3-0.1,0.7-0.3,1.1-0.5c0.4-0.2,0.9-0.4,1.4-0.5c0,0,0,0,0.1-0.1c0.1,0,0.2,0,0.3-0.1
			s0.5-0.1,0.9-0.3s1-0.3,1.7-0.5s1.6-0.5,2.8-0.8c0.1,0,0.1,0,0.1,0c0,0,0,0,0.1,0c0.1,0,0.2-0.1,0.4-0.1c0.2-0.1,0.4-0.1,0.5-0.1
			C334.6,87.7,334.4,87.9,334.2,88z M337,85.6c-0.2,0.2-0.4,0.4-0.5,0.7c-0.2,0.2-0.3,0.4-0.5,0.5c-0.7,0.1-1.3,0.2-1.9,0.4
			c-0.6,0.1-1.2,0.3-1.8,0.4c-0.6,0.2-1.2,0.3-1.8,0.5s-1.2,0.4-1.8,0.5c-0.2,0.1-0.4,0.1-0.7,0.2c-0.3,0.1-0.5,0.2-0.8,0.3
			c-0.3,0.1-0.5,0.2-0.8,0.3c-0.2,0.1-0.5,0.2-0.7,0.2c0-0.2,0.1-0.4,0.2-0.7c0.1-0.3,0.2-0.6,0.3-0.9c0.1-0.3,0.2-0.6,0.3-0.9
			s0.2-0.5,0.2-0.6c0.1-0.2,0.2-0.5,0.3-0.7c0.1-0.2,0.2-0.5,0.3-0.7c0.1-0.2,0.1-0.4,0.2-0.7c0.1-0.2,0.2-0.5,0.3-0.7l0.4-0.8
			c0-0.1,0-0.1,0-0.2c0-0.1,0-0.1,0-0.1c0-0.1,0.1-0.2,0.1-0.3c0-0.1,0.1-0.2,0.2-0.4c0-0.1,0.1-0.2,0.1-0.3c0-0.1,0.1-0.2,0.2-0.3
			C329,81.1,329,81,329,81c0-0.1,0.1-0.1,0.1-0.2c0.1-0.2,0.1-0.4,0.3-0.7c0.1-0.2,0.2-0.3,0.2-0.5c0.1-0.1,0.2-0.3,0.3-0.6
			c0.5-0.1,1-0.1,1.6-0.2c0.6-0.1,1.2-0.2,1.8-0.2c0.7,0,1.3,0,2.1,0.1s1.5,0.3,2.3,0.6c0.4,0.2,0.7,0.4,1,0.9
			c0.2,0.4,0.3,0.9,0.3,1.3c0,0.2-0.1,0.5-0.1,0.7c-0.1,0.3-0.2,0.5-0.3,0.8c-0.1,0.3-0.2,0.5-0.3,0.7c-0.1,0.2-0.3,0.4-0.4,0.6
			c-0.1,0.1-0.2,0.3-0.4,0.5C337.3,85.1,337.2,85.4,337,85.6z M342.6,86.3C342.6,86.3,342.6,86.3,342.6,86.3
			C342.7,86.3,342.7,86.3,342.6,86.3C342.6,86.3,342.6,86.3,342.6,86.3z M350,90.3c0,0,0,0.1,0,0.1c-0.1,0.3-0.3,0.7-0.5,1.2
			c-0.2,0.5-0.5,1-0.8,1.6c-0.3,0.6-0.6,1.1-0.9,1.7s-0.7,1.1-1.1,1.5s-0.8,0.9-1.2,1.2c-0.4,0.3-0.9,0.5-1.3,0.6
			c-0.1-0.1-0.1-0.2-0.1-0.2c0-0.1,0-0.2,0-0.2c0.1-0.4,0.2-0.8,0.3-1.2c0.2-0.4,0.4-0.7,0.6-1s0.5-0.6,0.7-0.9
			c0.3-0.3,0.5-0.6,0.7-0.9c0.1-0.1,0.2-0.3,0.4-0.5c0.2-0.2,0.5-0.5,0.8-0.8c0.3-0.3,0.6-0.6,1-1c0.4-0.3,0.7-0.7,1-1
			c0-0.1,0.1-0.1,0.2-0.1c0.1,0,0.2-0.1,0.3-0.1C350.1,90.3,350.1,90.3,350,90.3z"/>
		<path d="M357.7,83.9c0.1,0,0.1,0,0.1,0c0,0,0,0,0.1,0c0-0.1,0.1-0.1,0.2-0.1c0.1,0,0.2-0.1,0.2-0.2c0,0,0,0,0,0c0,0,0,0,0,0
			c0,0,0-0.1,0.1-0.1s0.1-0.1,0.1-0.1c0.1,0,0.1,0,0.1,0c0-0.1,0-0.1,0.1,0c0,0,0,0,0-0.1c0,0,0,0,0-0.1c0.1-0.1,0.2-0.2,0.2-0.3
			c0-0.2,0-0.3-0.1-0.4c0,0,0,0-0.1,0s0,0-0.1,0c-0.1-0.1-0.2-0.1-0.3-0.1c-0.1,0-0.2,0.1-0.3,0.2c-0.1,0.1-0.2,0.2-0.3,0.3
			c-0.1,0.1-0.1,0.2-0.1,0.2c0,0.1,0,0.1-0.1,0.2c0,0.1,0,0.2-0.1,0.3c0,0.1,0,0.2,0,0.2C357.6,83.8,357.6,83.9,357.7,83.9z"/>
		<path d="M367.4,81.5C367.4,81.5,367.4,81.5,367.4,81.5C367.4,81.5,367.4,81.5,367.4,81.5C367.4,81.5,367.4,81.5,367.4,81.5z"/>
		<path d="M363.6,82.3c0.5-0.1,1.1-0.2,1.7-0.3c0.6-0.1,1.1-0.1,1.7-0.2l0,0c0,0,0.1,0,0.1,0c0.1,0,0.1,0,0.2-0.1c0,0,0,0,0-0.1
			c0,0,0,0,0-0.1c0,0,0,0,0,0c0,0,0-0.1,0-0.1c0,0,0,0,0-0.1c-0.2-0.1-0.4-0.1-0.5-0.1c-0.2,0-0.3,0-0.5,0c-0.2,0-0.4,0-0.5,0.1
			c-0.1,0-0.2,0-0.2,0c-0.1,0-0.1,0-0.2,0c-0.1,0-0.2,0-0.5,0.1c-0.2,0-0.3,0.1-0.5,0.1c-0.2,0-0.3,0.1-0.5,0.1h0
			c0.1-0.3,0.3-0.6,0.4-0.9c0.1-0.3,0.3-0.6,0.4-0.9c0.2-0.3,0.3-0.7,0.5-1c0.1-0.3,0.3-0.7,0.4-1c0-0.1,0-0.1,0.1-0.2
			c0-0.1,0-0.1,0.1-0.2c0.1-0.1,0.1-0.1,0.1-0.2c0-0.1,0-0.1,0-0.2c0-0.1-0.1-0.2-0.3-0.3c-0.1-0.1-0.3-0.1-0.4-0.1
			c-0.1,0-0.2,0-0.4,0.1c-0.2,0.1-0.2,0.1-0.3,0.1c0,0-0.1,0.1-0.1,0.2s0,0.2-0.1,0.2c0,0.1-0.1,0.2-0.1,0.2c0,0.1-0.1,0.1-0.1,0.2
			c0,0,0,0.1,0,0.1s0,0.1,0,0.1c0,0.1-0.1,0.2-0.1,0.3c-0.1,0.2-0.1,0.4-0.2,0.6c-0.1,0.2-0.2,0.4-0.3,0.6c-0.2,0.4-0.4,0.9-0.6,1.3
			c-0.2,0.4-0.3,0.8-0.5,1.3c-0.1,0-0.1,0-0.2,0.1c-0.1,0-0.1,0-0.2,0c0,0-0.1,0-0.3,0s-0.3,0.1-0.5,0.1s-0.4,0.1-0.5,0.1
			c-0.2,0-0.3,0.1-0.4,0.1l-0.3,0.1c0,0.1-0.1,0.1-0.1,0.2s-0.1,0.1-0.1,0.2c0,0.1,0,0.2,0,0.3c0,0.1,0,0.1,0.1,0.2c0,0,0,0,0.1,0
			c0,0,0.1,0,0.2,0c0.1,0,0.1,0,0.2-0.1c0,0,0.1-0.1,0.1-0.1c0.1,0,0.2-0.1,0.3-0.1c0.1,0,0.2-0.1,0.3-0.1c0.2-0.1,0.4-0.2,0.6-0.2
			c0.2,0,0.3-0.1,0.5-0.1c-0.1,0.2-0.1,0.4-0.2,0.6c-0.1,0.2-0.1,0.4-0.2,0.6c-0.2,0.5-0.3,1.1-0.5,1.6c-0.1,0.3-0.2,0.6-0.3,0.9
			c-0.1,0-0.1,0.1-0.2,0.1c-0.1,0.1-0.2,0.1-0.3,0.2c-0.1,0-0.2,0.1-0.3,0.1c-0.1,0.1-0.2,0.1-0.3,0.1c-0.4,0.1-0.7,0.3-1.1,0.4
			s-0.7,0.3-1,0.5s-0.5,0.2-0.7,0.3c-0.2,0.1-0.3,0.1-0.4,0.1c0,0,0-0.1,0-0.3c0-0.1,0.1-0.3,0.2-0.5c0.1-0.2,0.2-0.4,0.3-0.6
			c0.1-0.2,0.2-0.4,0.3-0.6c0,0,0,0,0-0.1s0,0,0-0.1c0,0,0,0,0,0c0,0,0,0,0,0c0-0.1,0-0.1,0.1-0.2c0,0,0-0.1,0.1-0.1
			c0.1-0.1,0.1-0.2,0.1-0.3c0-0.1,0-0.1,0-0.2c0-0.1,0-0.1,0-0.2c0-0.1,0-0.1-0.1-0.2s-0.1-0.1-0.1-0.1c0,0-0.1,0-0.2,0
			c-0.1,0-0.1,0-0.2,0c-0.1,0-0.2,0.1-0.3,0.1c-0.2,0.3-0.4,0.6-0.5,0.9c-0.2,0.3-0.3,0.7-0.5,1c0,0.1-0.1,0.2-0.1,0.4
			c-0.1,0.1-0.1,0.2-0.2,0.4c0,0.1-0.1,0.2-0.1,0.3c0,0.1-0.1,0.2-0.1,0.3c-0.1,0.2-0.1,0.4-0.2,0.6c0,0.2,0,0.3,0,0.5
			c0.1,0.2,0.2,0.3,0.4,0.3c0.2,0,0.4,0.1,0.6,0.1c0,0,0.1,0,0.1,0c0,0,0,0,0.1-0.1c0.1,0,0.3,0,0.5-0.2c0.3-0.2,0.6-0.3,0.9-0.6
			c0.3-0.2,0.6-0.4,0.9-0.6c0.3-0.2,0.5-0.3,0.7-0.4c0.2-0.1,0.3-0.2,0.5-0.3c0.2-0.1,0.3-0.2,0.5-0.3c0.2-0.1,0.3-0.2,0.4-0.2
			c0,0,0,0,0,0c0,0.1,0,0.1,0,0.2c-0.1,0.4-0.2,0.9-0.3,1.4s-0.2,1-0.2,1.5c0,0.1,0,0.1,0,0.2c0,0.1,0.1,0.1,0.2,0.2h0
			c0.1,0,0.1,0,0.2-0.1c0.1,0,0.1,0,0.2-0.1c0.1,0,0.1,0,0.1-0.1c0,0,0,0,0.1-0.1c0-0.1,0-0.1,0-0.2c0-0.1,0-0.1,0-0.2l0.1-0.2
			c0,0,0-0.1,0-0.2c0-0.1,0-0.2,0-0.2c0-0.1,0-0.1,0-0.2c0-0.1,0-0.1,0.1-0.2c0,0,0-0.1,0.1-0.1s0.1-0.1,0.1-0.1
			c0.1-0.1,0.1-0.2,0.1-0.4s0.1-0.3,0.1-0.4c0-0.1,0.1-0.2,0.1-0.4s0.1-0.2,0.1-0.3c0.2-0.7,0.4-1.5,0.7-2.2
			c0.3-0.7,0.5-1.5,0.7-2.2L363.6,82.3z"/>
		<path d="M367.4,81.5C367.4,81.5,367.4,81.5,367.4,81.5C367.4,81.4,367.4,81.5,367.4,81.5z"/>
		<path d="M371.4,86.8c-0.1-0.1-0.3,0-0.7,0.1c-0.2,0.1-0.4,0.3-0.7,0.4c-0.3,0.2-0.5,0.3-0.7,0.4c-0.1,0-0.2,0.1-0.3,0.2
			c-0.1,0.1-0.2,0.1-0.3,0.2c-0.1,0-0.2,0-0.3,0c-0.1,0-0.1-0.1-0.1-0.3l0.1-0.5c0-0.1,0.1-0.1,0.1-0.2c0,0,0-0.1,0-0.2
			c0-0.1,0.1-0.2,0.1-0.2v-0.1c0.1-0.1,0.1-0.2,0.1-0.3c0.1-0.1,0.2-0.2,0.2-0.4c0.1-0.1,0.1-0.2,0.2-0.4c0-0.2,0-0.3-0.1-0.3
			c-0.1,0-0.2-0.1-0.2-0.1h-0.3c0,0-0.1,0-0.1,0c-0.1,0-0.1,0-0.1,0c0,0,0,0.1,0,0.1s0,0.1,0,0.1c0,0.1,0,0.1-0.1,0.1
			c0,0,0,0.1-0.1,0.1v0H368c-0.1,0.2-0.2,0.3-0.3,0.3c-0.1,0.1-0.2,0.2-0.4,0.3c-0.5,0.3-0.9,0.7-1.3,1c-0.4,0.3-0.9,0.6-1.4,0.9
			c-0.1,0.1-0.2,0.1-0.3,0.2c0-0.1,0.1-0.2,0.1-0.3c0.1-0.1,0.1-0.2,0.2-0.3c0.1-0.1,0.1-0.1,0.2-0.2c0-0.1,0.1-0.1,0.2-0.2v0v0
			c0.1,0,0.1-0.1,0.1-0.1c0.1,0,0.2-0.1,0.2-0.2c0.1-0.1,0.1-0.1,0.2-0.2c0.1-0.1,0.2-0.2,0.4-0.3c0.1-0.1,0.2-0.2,0.4-0.3
			c0.1-0.1,0.1-0.1,0.2-0.2c0.1,0,0.1-0.1,0.2-0.2c0.1-0.1,0.2-0.1,0.3-0.2s0.2-0.1,0.3-0.2c0-0.1,0.1-0.1,0.1-0.2c0,0,0.1,0,0.1,0
			l0,0l0.3-0.2c0.1-0.1,0.3-0.2,0.4-0.3c0.1,0,0.1,0,0.2,0c0.1,0,0.1,0,0.1-0.1c0.1,0,0.1-0.1,0.1-0.1c0-0.1,0-0.1,0-0.2
			c0-0.1,0-0.2-0.1-0.2s-0.1-0.1-0.2-0.2c-0.1,0-0.2,0-0.3-0.1c0,0-0.1,0-0.1,0c0,0-0.1,0-0.1,0c0,0,0,0,0,0c0,0,0,0,0,0
			c-0.2,0.1-0.3,0.1-0.4,0.2c-0.1,0.1-0.2,0.2-0.4,0.3c-0.1,0-0.2,0.1-0.5,0.3c-0.2,0.2-0.5,0.4-0.7,0.6c-0.3,0.2-0.5,0.5-0.8,0.7
			c-0.2,0.2-0.4,0.4-0.5,0.5c-0.1,0.2-0.3,0.4-0.4,0.5c-0.1,0.2-0.3,0.3-0.4,0.5c-0.1,0.1-0.2,0.2-0.2,0.4s-0.1,0.3-0.1,0.4
			c0,0,0,0,0,0c0,0,0,0,0,0c-0.1,0.3,0,0.4,0.1,0.5c0.1,0.1,0.2,0.1,0.3,0.1c0.1,0,0.2,0,0.3,0c0.1,0,0.1,0,0.2,0s0.1,0,0.2,0
			c0.1,0,0.2,0,0.3-0.1c0.1,0,0.2-0.1,0.3-0.2c0.4-0.2,0.7-0.3,1-0.6c0,0,0.1-0.1,0.1-0.1c0.1,0,0.1,0,0.1-0.1c0,0,0,0,0,0
			c0,0,0,0,0,0c0,0,0.1-0.1,0.1-0.1c0,0,0.1-0.1,0.1-0.1c0.1,0,0.2-0.1,0.2-0.2c0.1-0.1,0.1-0.1,0.2-0.2c0,0,0.1-0.1,0.1-0.1
			c0,0,0.1,0,0.1-0.1c0,0,0,0,0,0c0,0,0,0,0.1,0c0,0.2,0,0.3,0,0.5c0,0.2,0,0.3,0.1,0.4c0,0.1,0.1,0.2,0.1,0.3
			c0,0.1,0.1,0.1,0.3,0.2c0,0,0.1,0,0.1,0.1s0.1,0,0.1,0c0.3,0.1,0.5,0.1,0.8,0c0.2-0.1,0.4-0.2,0.6-0.3c0.2-0.1,0.4-0.3,0.6-0.4
			c0.2-0.2,0.4-0.3,0.6-0.4c0,0,0.1,0,0.2-0.1c0.1,0,0.2-0.2,0.4-0.3c0-0.1,0.1-0.2,0.2-0.2c0.1,0,0.1,0,0.2-0.1
			C371.5,87,371.5,86.9,371.4,86.8z"/>
		<path d="M376.6,77c0,0-0.1-0.1-0.1-0.2c0-0.1-0.1-0.2-0.1-0.3c0-0.1-0.1-0.1-0.2-0.1c-0.1,0-0.3,0-0.4,0c-0.2,0.1-0.3,0.1-0.3,0.2
			c0,0.2-0.1,0.4-0.1,0.6c-0.1,0.3-0.2,0.6-0.3,0.9c-0.1,0.3-0.2,0.6-0.3,0.9c-0.1,0.4-0.3,0.8-0.4,1.1c-0.1,0.4-0.3,0.7-0.5,1.1v0
			c-0.1,0.2-0.2,0.4-0.3,0.7c-0.1,0.3-0.2,0.6-0.4,0.9c-0.1,0.3-0.2,0.6-0.4,0.9c-0.1,0.3-0.2,0.6-0.3,0.7c0,0.1,0,0.1-0.1,0.2
			c0,0.1,0,0.1-0.1,0.1v0l0,0c0,0,0,0,0,0c-0.2,0.5-0.3,1-0.5,1.6c-0.2,0.5-0.3,1.1-0.4,1.7c-0.1,0.2-0.1,0.4-0.1,0.6
			s-0.1,0.4-0.1,0.6c0,0.1,0,0.1,0.1,0.2c0,0,0.1,0.1,0.1,0.2c0.1,0,0.1,0,0.2,0.1c0,0.1,0.1,0.1,0.2,0.1c0.1,0,0.1,0,0.1-0.1
			s0.1-0.1,0.1-0.1c0-0.3,0-0.5,0.1-0.7c0-0.1,0-0.2,0-0.3c0.1-0.3,0.1-0.5,0.2-0.8s0.2-0.5,0.2-0.8c0.3-1,0.7-1.9,1-2.8
			c0.4-0.9,0.7-1.8,1.1-2.7c0.1-0.2,0.1-0.4,0.2-0.7c0.1-0.2,0.2-0.4,0.3-0.6c0.2-0.3,0.3-0.7,0.4-1c0.1-0.4,0.3-0.7,0.4-1.1
			c0-0.1,0.1-0.3,0.1-0.3c0-0.1,0.1-0.2,0.1-0.3c0-0.1,0.1-0.2,0.1-0.2c0-0.1,0.1-0.2,0.1-0.3C376.6,77.1,376.6,77,376.6,77z"/>
	</g>
</g>
<g class="st2">
	<path class="st3" d="M69.2,20.2l-3.9,19.3h-2.9L54.5,26l-2.7,13.5h-3.6l3.9-19.3H55l7.9,13.5l2.7-13.5H69.2z"/>
	<path class="st3" d="M73.8,38c-1.3-1.2-2-2.8-2-4.8c0-0.6,0.1-1.3,0.2-2.1l2.2-10.9h3.6l-2.2,10.8c-0.1,0.7-0.2,1.3-0.2,1.7
		c0,1.3,0.4,2.3,1.1,2.9c0.7,0.7,1.8,1,3.2,1c1.5,0,2.8-0.4,3.7-1.3c0.9-0.9,1.6-2.3,2-4.3l2.1-10.8h3.5l-2.2,11
		c-0.6,2.8-1.7,5-3.2,6.4c-1.6,1.4-3.7,2.1-6.3,2.1C77,39.8,75.1,39.2,73.8,38z"/>
	<path class="st3" d="M99.1,23.2l-1,5h9.3l-0.6,2.9h-9.4l-1,5.3h10.9l-0.6,3H92.3l3.9-19.3h14.1l-0.6,3H99.1z"/>
	<path class="st3" d="M112.7,39.2c-1.4-0.4-2.4-1-3.2-1.6l1.5-2.8c0.8,0.6,1.8,1.2,2.9,1.5c1.1,0.4,2.2,0.6,3.4,0.6
		c1.4,0,2.5-0.2,3.4-0.7s1.3-1.2,1.3-2c0-0.5-0.2-0.9-0.5-1.2s-0.8-0.6-1.3-0.8c-0.5-0.2-1.2-0.4-2.1-0.7c-1.2-0.4-2.3-0.7-3-1.1
		c-0.8-0.3-1.4-0.8-2-1.5c-0.6-0.7-0.8-1.6-0.8-2.6c0-1.2,0.4-2.3,1.1-3.3c0.7-0.9,1.7-1.7,3-2.2c1.3-0.5,2.7-0.8,4.4-0.8
		c1.2,0,2.4,0.1,3.6,0.4c1.1,0.3,2.1,0.7,2.9,1.2l-1.4,2.8c-0.7-0.5-1.5-0.8-2.4-1.1c-0.9-0.3-1.8-0.4-2.8-0.4
		c-1.4,0-2.6,0.3-3.4,0.8s-1.3,1.2-1.3,2.1c0,0.5,0.2,0.9,0.5,1.2s0.8,0.6,1.3,0.8c0.5,0.2,1.2,0.4,2.2,0.7c1.2,0.3,2.2,0.7,3,1
		c0.8,0.3,1.4,0.8,2,1.5c0.5,0.6,0.8,1.5,0.8,2.5c0,1.3-0.4,2.4-1.1,3.3c-0.7,0.9-1.7,1.7-3,2.2c-1.3,0.5-2.8,0.8-4.4,0.8
		C115.5,39.8,114.1,39.6,112.7,39.2z"/>
	<path class="st3" d="M134.9,23.3h-6.4l0.6-3h16.4l-0.6,3h-6.4l-3.2,16.2h-3.6L134.9,23.3z"/>
	<path class="st3" d="M161.5,30.8c-1,1.3-2.4,2.2-4.2,2.7l3.4,6.1H157l-3.2-5.6h0H149l-1.1,5.6h-3.6l3.9-19.3h7.5
		c2.3,0,4.1,0.5,5.4,1.5c1.3,1,1.9,2.4,1.9,4.3C163,27.9,162.5,29.5,161.5,30.8z M158,29.8c1-0.8,1.4-1.9,1.4-3.4
		c0-1-0.4-1.8-1.1-2.3c-0.7-0.5-1.7-0.8-3-0.8h-4.1l-1.5,7.7h4.3C155.7,30.9,157,30.5,158,29.8z"/>
	<path class="st3" d="M178,35.1h-9.7l-2.8,4.5h-3.8l12.5-19.3h3.6l4.8,19.3h-3.6L178,35.1z M177.4,32.3l-2-8.5l-5.3,8.5H177.4z"/>
	<path class="st3" d="M187.1,39.2c-1.4-0.4-2.4-1-3.2-1.6l1.5-2.8c0.8,0.6,1.8,1.2,2.9,1.5c1.1,0.4,2.2,0.6,3.4,0.6
		c1.4,0,2.5-0.2,3.4-0.7s1.3-1.2,1.3-2c0-0.5-0.2-0.9-0.5-1.2s-0.8-0.6-1.3-0.8c-0.5-0.2-1.2-0.4-2.1-0.7c-1.2-0.4-2.3-0.7-3-1.1
		c-0.8-0.3-1.4-0.8-2-1.5c-0.6-0.7-0.8-1.6-0.8-2.6c0-1.2,0.4-2.3,1.1-3.3c0.7-0.9,1.7-1.7,3-2.2c1.3-0.5,2.7-0.8,4.4-0.8
		c1.2,0,2.4,0.1,3.6,0.4c1.1,0.3,2.1,0.7,2.9,1.2l-1.4,2.8c-0.7-0.5-1.5-0.8-2.4-1.1c-0.9-0.3-1.8-0.4-2.8-0.4
		c-1.4,0-2.6,0.3-3.4,0.8s-1.3,1.2-1.3,2.1c0,0.5,0.2,0.9,0.5,1.2s0.8,0.6,1.3,0.8c0.5,0.2,1.2,0.4,2.2,0.7c1.2,0.3,2.2,0.7,3,1
		c0.8,0.3,1.4,0.8,2,1.5c0.5,0.6,0.8,1.5,0.8,2.5c0,1.3-0.4,2.4-1.1,3.3c-0.7,0.9-1.7,1.7-3,2.2c-1.3,0.5-2.8,0.8-4.4,0.8
		C189.9,39.8,188.5,39.6,187.1,39.2z"/>
</g>
<g class="st2">
	<path class="st3" d="M236.2,20.2l-3.8,19.3h-5l2-10.2l-6.4,8.3h-2.4l-3.5-8.3l-2,10.2h-5l3.9-19.3h4.4l4.5,11.2l8.8-11.2H236.2z"/>
	<path class="st3" d="M250.2,35.8H242l-2.2,3.7H234l12.4-19.3h5.4l4.7,19.3h-5.4L250.2,35.8z M249.3,31.8l-1.3-6.3l-3.7,6.3H249.3z"
		/>
	<path class="st3" d="M276.4,30.9c-0.9,1.3-2.2,2.2-3.9,2.8l3.3,5.8H270l-2.9-5.1h-2.8l-1,5.1h-5.5l3.9-19.3h8.2
		c2.5,0,4.4,0.5,5.7,1.6c1.4,1.1,2,2.6,2,4.5C277.8,28.2,277.3,29.7,276.4,30.9z M271.5,25.1c-0.5-0.4-1.3-0.6-2.2-0.6h-2.9
		l-1.2,5.6h3.2c1.2,0,2.1-0.3,2.8-0.9c0.7-0.6,1-1.4,1-2.4C272.3,26.1,272,25.5,271.5,25.1z"/>
	<path class="st3" d="M283.7,38.9c-1.5-0.7-2.6-1.7-3.4-3c-0.8-1.3-1.2-2.8-1.2-4.4c0-2.2,0.5-4.2,1.5-5.9c1-1.8,2.4-3.1,4.3-4.1
		c1.8-1,3.9-1.5,6.3-1.5c1.8,0,3.4,0.3,4.7,1c1.4,0.6,2.4,1.5,3.1,2.7l-3.9,3.1c-0.9-1.5-2.4-2.3-4.2-2.3c-1.2,0-2.3,0.3-3.2,0.9
		s-1.7,1.4-2.2,2.4c-0.5,1-0.8,2.2-0.8,3.4c0,1.3,0.4,2.4,1.3,3.1c0.8,0.8,2,1.2,3.4,1.2c1.8,0,3.4-0.7,4.7-2.2l3.2,3.2
		c-1,1.3-2.3,2.2-3.7,2.7c-1.4,0.6-3,0.8-4.8,0.8C286.9,39.9,285.2,39.6,283.7,38.9z"/>
	<path class="st3" d="M312.2,35.8H304l-2.2,3.7H296l12.4-19.3h5.4l4.7,19.3H313L312.2,35.8z M311.4,31.8l-1.3-6.3l-3.7,6.3H311.4z"
		/>
	<path class="st3" d="M322.6,39.3c-1.4-0.4-2.6-0.9-3.5-1.5l2.1-4.1c1,0.6,2,1.1,3.1,1.4c1.1,0.3,2.2,0.5,3.3,0.5
		c1,0,1.9-0.2,2.4-0.5c0.6-0.3,0.9-0.7,0.9-1.3c0-0.5-0.3-0.8-0.8-1.1c-0.5-0.3-1.3-0.5-2.4-0.8c-1.2-0.3-2.3-0.7-3.1-1
		c-0.8-0.3-1.5-0.9-2.1-1.6c-0.6-0.7-0.9-1.6-0.9-2.8c0-1.4,0.4-2.6,1.1-3.6c0.8-1,1.8-1.8,3.2-2.4c1.4-0.6,3-0.9,4.9-0.9
		c1.4,0,2.7,0.1,3.9,0.4c1.2,0.3,2.2,0.7,3.1,1.2l-2,4c-0.8-0.5-1.6-0.8-2.5-1.1c-0.9-0.2-1.8-0.4-2.8-0.4c-1.1,0-1.9,0.2-2.5,0.5
		c-0.6,0.3-0.9,0.8-0.9,1.3c0,0.5,0.3,0.8,0.8,1.1c0.5,0.3,1.4,0.5,2.5,0.8c1.2,0.3,2.3,0.6,3.1,1c0.8,0.3,1.5,0.8,2.1,1.5
		c0.6,0.7,0.9,1.6,0.9,2.7c0,1.4-0.4,2.6-1.1,3.6c-0.8,1-1.8,1.8-3.2,2.4c-1.4,0.6-3,0.9-4.9,0.9C325.5,39.9,324,39.7,322.6,39.3z"
		/>
	<path class="st3" d="M349.6,20.2h8.4c2,0,3.7,0.3,5.1,1c1.5,0.7,2.6,1.6,3.3,2.8c0.8,1.2,1.2,2.7,1.2,4.3c0,2.2-0.5,4.2-1.5,5.9
		c-1,1.7-2.4,3-4.3,3.9s-3.9,1.4-6.3,1.4h-9.9L349.6,20.2z M355.8,35.2c1.3,0,2.5-0.3,3.4-0.8c1-0.6,1.7-1.3,2.2-2.3
		c0.5-1,0.7-2.1,0.7-3.3c0-1.3-0.4-2.3-1.2-3s-2-1.1-3.6-1.1h-3.2l-2.1,10.6H355.8z"/>
	<path class="st3" d="M376.9,24.5l-0.6,3.2h8.6l-0.8,4.1h-8.6l-0.7,3.5h10.1l-0.9,4.2h-15.5l3.9-19.3h15.1l-0.9,4.2H376.9z"/>
	<path class="st3" d="M389.7,39.3c-1.4-0.4-2.6-0.9-3.5-1.5l2.1-4.1c1,0.6,2,1.1,3.1,1.4c1.1,0.3,2.2,0.5,3.3,0.5
		c1,0,1.9-0.2,2.4-0.5c0.6-0.3,0.9-0.7,0.9-1.3c0-0.5-0.3-0.8-0.8-1.1c-0.5-0.3-1.3-0.5-2.4-0.8c-1.2-0.3-2.3-0.7-3.1-1
		c-0.8-0.3-1.5-0.9-2.1-1.6c-0.6-0.7-0.9-1.6-0.9-2.8c0-1.4,0.4-2.6,1.1-3.6c0.8-1,1.8-1.8,3.2-2.4c1.4-0.6,3-0.9,4.9-0.9
		c1.4,0,2.7,0.1,3.9,0.4c1.2,0.3,2.2,0.7,3.1,1.2l-2,4c-0.8-0.5-1.6-0.8-2.5-1.1c-0.9-0.2-1.8-0.4-2.8-0.4c-1.1,0-1.9,0.2-2.5,0.5
		c-0.6,0.3-0.9,0.8-0.9,1.3c0,0.5,0.3,0.8,0.8,1.1c0.5,0.3,1.4,0.5,2.5,0.8c1.2,0.3,2.3,0.6,3.1,1c0.8,0.3,1.5,0.8,2.1,1.5
		c0.6,0.7,0.9,1.6,0.9,2.7c0,1.4-0.4,2.6-1.1,3.6c-0.8,1-1.8,1.8-3.2,2.4c-1.4,0.6-3,0.9-4.9,0.9C392.6,39.9,391.1,39.7,389.7,39.3z
		"/>
	<path class="st3" d="M411.7,24.6h-5.9l0.9-4.3h17.3l-0.9,4.3h-5.9l-3,15h-5.5L411.7,24.6z"/>
	<path class="st3" d="M435,35.8h-8.2l-2.2,3.7h-5.8l12.4-19.3h5.4l4.7,19.3h-5.4L435,35.8z M434.2,31.8l-1.3-6.3l-3.7,6.3H434.2z"/>
	<path class="st3" d="M447.9,38.9c-1.5-0.7-2.6-1.7-3.4-3c-0.8-1.3-1.2-2.8-1.2-4.4c0-2.2,0.5-4.2,1.5-5.9c1-1.8,2.4-3.1,4.3-4.1
		c1.8-1,3.9-1.5,6.3-1.5c1.8,0,3.4,0.3,4.7,1c1.4,0.6,2.4,1.5,3.1,2.7l-3.9,3.1c-0.9-1.5-2.3-2.3-4.2-2.3c-1.2,0-2.3,0.3-3.2,0.9
		s-1.7,1.4-2.2,2.4c-0.5,1-0.8,2.2-0.8,3.4c0,1.3,0.4,2.4,1.3,3.1c0.8,0.8,2,1.2,3.4,1.2c1.8,0,3.4-0.7,4.7-2.2l3.2,3.2
		c-1,1.3-2.3,2.2-3.7,2.7c-1.4,0.6-3,0.8-4.8,0.8C451,39.9,449.3,39.6,447.9,38.9z"/>
	<path class="st3" d="M476.3,35.8h-8.2l-2.2,3.7h-5.8l12.4-19.3h5.4l4.7,19.3h-5.4L476.3,35.8z M475.5,31.8l-1.3-6.3l-3.7,6.3H475.5
		z"/>
	<path class="st3" d="M488,20.2h8.4c2,0,3.7,0.3,5.1,1c1.5,0.7,2.6,1.6,3.3,2.8c0.8,1.2,1.2,2.7,1.2,4.3c0,2.2-0.5,4.2-1.5,5.9
		c-1,1.7-2.4,3-4.3,3.9s-3.9,1.4-6.3,1.4h-9.9L488,20.2z M494.1,35.2c1.3,0,2.5-0.3,3.4-0.8c1-0.6,1.7-1.3,2.2-2.3
		c0.5-1,0.7-2.1,0.7-3.3c0-1.3-0.4-2.3-1.2-3s-2-1.1-3.6-1.1h-3.2l-2.1,10.6H494.1z"/>
	<path class="st3" d="M520.5,35.8h-8.2l-2.2,3.7h-5.8l12.4-19.3h5.4l4.7,19.3h-5.4L520.5,35.8z M519.6,31.8l-1.3-6.3l-3.7,6.3H519.6
		z"/>
	<path class="st3" d="M530.9,39.3c-1.4-0.4-2.6-0.9-3.5-1.5l2.1-4.1c1,0.6,2,1.1,3.1,1.4c1.1,0.3,2.2,0.5,3.3,0.5
		c1,0,1.9-0.2,2.4-0.5c0.6-0.3,0.9-0.7,0.9-1.3c0-0.5-0.3-0.8-0.8-1.1s-1.3-0.5-2.4-0.8c-1.2-0.3-2.3-0.7-3.1-1
		c-0.8-0.3-1.5-0.9-2.1-1.6c-0.6-0.7-0.9-1.6-0.9-2.8c0-1.4,0.4-2.6,1.1-3.6c0.8-1,1.8-1.8,3.2-2.4s3-0.9,4.9-0.9
		c1.4,0,2.7,0.1,3.9,0.4s2.2,0.7,3.1,1.2l-2,4c-0.8-0.5-1.6-0.8-2.5-1.1s-1.8-0.4-2.8-0.4c-1.1,0-1.9,0.2-2.5,0.5
		c-0.6,0.3-0.9,0.8-0.9,1.3c0,0.5,0.3,0.8,0.8,1.1c0.5,0.3,1.4,0.5,2.5,0.8c1.2,0.3,2.3,0.6,3.1,1c0.8,0.3,1.5,0.8,2.1,1.5
		c0.6,0.7,0.9,1.6,0.9,2.7c0,1.4-0.4,2.6-1.1,3.6s-1.8,1.8-3.2,2.4c-1.4,0.6-3,0.9-4.9,0.9C533.8,39.9,532.3,39.7,530.9,39.3z"/>
</g>
</svg>
