<?xml version="1.0" encoding="utf-8"?>
<!-- Generator: Adobe Illustrator 24.0.3, SVG Export Plug-In . SVG Version: 6.00 Build 0)  -->
<svg version="1.1" id="Capa_1" xmlns="http://www.w3.org/2000/svg" xmlns:xlink="http://www.w3.org/1999/xlink" x="0px" y="0px"
	 width="600px" height="99px" viewBox="0 0 600 99" style="enable-background:new 0 0 600 99;" xml:space="preserve">
<style type="text/css">
	.st0{fill:#E30613;}
	.st1{fill:none;stroke:#000000;stroke-width:2;stroke-linecap:round;stroke-linejoin:round;stroke-miterlimit:10;}
	.st2{fill:#FFFFFF;}
	.st3{font-family:'Montserrat-SemiBoldItalic';}
	.st4{font-size:27.5398px;}
	.st5{font-family:'Montserrat-ExtraBoldItalic';}
</style>
<path class="st0" d="M558.666,58.807H36.479c-16.297,0-29.508-13.211-29.508-29.508v0c0-16.297,13.211-29.508,29.508-29.508
	l522.186,0c16.297,0,29.508,13.211,29.508,29.508v0C588.174,45.596,574.962,58.807,558.666,58.807z"/>
<path class="st1" d="M430.581,2.791h132.084c16.297,0,29.508,13.211,29.508,29.508v0c0,16.297-13.211,29.508-29.508,29.508H213.434"
	/>
<line class="st1" x1="383.094" y1="2.791" x2="390.242" y2="2.791"/>
<path class="st1" d="M17.358,13.963C22.763,7.156,31.111,2.791,40.479,2.791l335.34,0"/>
<path class="st1" d="M200.75,61.807H40.479c-16.297,0-29.508-13.211-29.508-29.508v0c0-2.507,0.313-4.942,0.901-7.266"/>
<g>
	<g>
		<path d="M293.88,78.015c-0.028-0.07-0.112-0.175-0.253-0.316c-0.14-0.14-0.245-0.217-0.316-0.232
			c-0.112-0.042-0.227-0.052-0.347-0.031c-0.119,0.021-0.235,0.039-0.347,0.052c-0.196,0.182-0.407,0.344-0.631,0.484
			c-0.224,0.14-0.434,0.287-0.631,0.441c-0.224,0.154-0.438,0.312-0.64,0.473c-0.204,0.161-0.404,0.326-0.6,0.495
			c-1.009,0.841-1.987,1.714-2.934,2.619c-0.947,0.904-1.868,1.826-2.765,2.765c-0.182,0.168-0.362,0.347-0.537,0.537
			c-0.175,0.189-0.368,0.361-0.579,0.515c0.224-0.658,0.432-1.318,0.621-1.977c0.19-0.658,0.404-1.331,0.642-2.019
			c0.182-0.491,0.365-0.963,0.547-1.419c0.181-0.456,0.35-0.95,0.504-1.482c0.042-0.155,0.095-0.326,0.158-0.516
			c0.063-0.19,0.102-0.361,0.115-0.516c0-0.322-0.105-0.567-0.316-0.736c-0.21-0.168-0.428-0.301-0.652-0.399
			c-0.098-0.028-0.193-0.063-0.284-0.105c-0.091-0.042-0.186-0.07-0.283-0.085c-0.113-0.027-0.218-0.021-0.316,0.022
			c-0.099,0.042-0.182,0.084-0.253,0.126c-0.07,0.028-0.127,0.081-0.169,0.157c-0.042,0.078-0.091,0.151-0.147,0.221
			c-0.07,0.07-0.14,0.136-0.211,0.2c-0.07,0.063-0.14,0.129-0.21,0.199c-1.374,1.276-2.629,2.64-3.765,4.09
			c-1.135,1.452-2.264,2.949-3.386,4.491c-0.574,0.799-1.117,1.623-1.63,2.471c-0.512,0.849-1.034,1.707-1.566,2.577
			c-0.112,0.154-0.242,0.326-0.389,0.515c-0.148,0.19-0.214,0.369-0.2,0.537c0,0.154,0.049,0.295,0.147,0.42
			c0.099,0.127,0.225,0.232,0.379,0.316c0.154,0.084,0.322,0.148,0.504,0.19c0.182,0.042,0.351,0.048,0.505,0.021
			c0.35-0.057,0.616-0.232,0.799-0.526c0.084-0.182,0.14-0.375,0.169-0.578c0.027-0.203,0.069-0.39,0.126-0.558
			c0.097-0.323,0.238-0.659,0.42-1.009c0.336-0.631,0.687-1.237,1.051-1.82c0.365-0.581,0.73-1.174,1.094-1.777
			c0.364-0.589,0.75-1.159,1.156-1.714c0.407-0.553,0.813-1.096,1.22-1.63c0.63-0.841,1.279-1.644,1.945-2.408
			c0.667-0.764,1.343-1.511,2.029-2.24c-0.154,0.772-0.336,1.512-0.546,2.219c-0.211,0.708-0.428,1.44-0.652,2.197
			c-0.099,0.351-0.2,0.709-0.305,1.073c-0.105,0.365-0.214,0.736-0.326,1.114c-0.057,0.169-0.105,0.347-0.147,0.537
			c-0.043,0.189-0.085,0.382-0.127,0.578c-0.042,0.197-0.081,0.4-0.115,0.61c-0.036,0.211-0.052,0.414-0.052,0.61
			c0,0.07-0.007,0.151-0.021,0.242c-0.015,0.091-0.007,0.151,0.021,0.178c0.014,0.057,0.063,0.106,0.147,0.148
			c0.084,0.042,0.182,0.073,0.295,0.094c0.112,0.021,0.224,0.036,0.336,0.042c0.112,0.007,0.203-0.003,0.274-0.031
			c0.126-0.042,0.235-0.13,0.326-0.263c0.091-0.133,0.186-0.263,0.284-0.389c0.266-0.35,0.543-0.683,0.83-0.999
			c0.287-0.316,0.564-0.621,0.831-0.915c0.966-1.079,1.952-2.11,2.954-3.091c1.003-0.981,2.051-1.928,3.145-2.839
			c0.238-0.182,0.47-0.357,0.694-0.526c0.224-0.168,0.455-0.329,0.694-0.483c-0.211,0.841-0.445,1.647-0.704,2.418
			c-0.26,0.772-0.537,1.578-0.831,2.418c-0.112,0.336-0.256,0.817-0.431,1.44c-0.175,0.625-0.354,1.283-0.537,1.977
			c-0.182,0.694-0.353,1.367-0.515,2.019s-0.27,1.181-0.326,1.588c-0.028,0.126-0.049,0.256-0.063,0.389
			c-0.015,0.133,0,0.242,0.042,0.326c0.084,0.323,0.295,0.512,0.631,0.568c0.154,0.027,0.274-0.007,0.357-0.105
			c0.084-0.099,0.147-0.379,0.189-0.842c0.085-0.462,0.221-1.056,0.411-1.777c0.189-0.722,0.389-1.465,0.599-2.23
			c0.211-0.764,0.421-1.5,0.631-2.209c0.211-0.708,0.393-1.285,0.547-1.735c0.154-0.406,0.298-0.823,0.431-1.251
			c0.133-0.428,0.27-0.866,0.41-1.315c0.112-0.323,0.229-0.642,0.347-0.957c0.12-0.316,0.229-0.634,0.326-0.957
			c0.028-0.112,0.067-0.232,0.116-0.357C293.877,78.247,293.894,78.127,293.88,78.015z"/>
		<path d="M299.926,83.104c0.189-0.519,0.403-1.009,0.642-1.472c0.168-0.365,0.336-0.722,0.504-1.073
			c0.169-0.35,0.351-0.687,0.547-1.009c0.084-0.139,0.178-0.273,0.284-0.399c0.105-0.126,0.171-0.274,0.199-0.441
			c0.015-0.126-0.014-0.253-0.084-0.378c-0.07-0.127-0.168-0.235-0.295-0.326c-0.126-0.091-0.266-0.161-0.42-0.211
			c-0.154-0.049-0.302-0.06-0.441-0.031c-0.099,0.015-0.221,0.057-0.368,0.126c-0.148,0.071-0.249,0.148-0.305,0.232
			c-0.028,0.07-0.039,0.137-0.031,0.2c0.006,0.063,0.003,0.13-0.01,0.199c-0.071,0.267-0.161,0.534-0.274,0.8
			c-0.112,0.266-0.224,0.54-0.336,0.82c-0.112,0.295-0.224,0.582-0.336,0.863c-0.112,0.28-0.218,0.553-0.316,0.82
			c-0.239,0.534-0.463,1.08-0.673,1.641c-0.211,0.561-0.435,1.135-0.673,1.724c-0.239,0.561-0.449,1.129-0.631,1.703
			c-0.182,0.576-0.393,1.178-0.631,1.809c-0.084,0.266-0.179,0.561-0.284,0.883c-0.105,0.323-0.193,0.617-0.263,0.884
			c-0.042,0.139-0.087,0.29-0.136,0.452c-0.049,0.161-0.091,0.323-0.126,0.484c-0.036,0.16-0.057,0.305-0.064,0.431
			c-0.006,0.126,0.018,0.224,0.074,0.295c0.027,0.028,0.052,0.056,0.073,0.084c0.021,0.028,0.066,0.035,0.136,0.021
			c0.028,0.028,0.067,0.063,0.116,0.106c0.048,0.042,0.087,0.063,0.115,0.063c0.056,0.014,0.126,0.006,0.211-0.021
			c0.056,0,0.097,0.003,0.126,0.01c0.028,0.006,0.063,0.003,0.105-0.01c0.042-0.169,0.085-0.336,0.127-0.505
			c0.042-0.168,0.098-0.329,0.168-0.483c0.028-0.085,0.066-0.172,0.116-0.263c0.048-0.091,0.087-0.179,0.115-0.263
			c0.112-0.253,0.21-0.508,0.295-0.767c0.084-0.26,0.175-0.523,0.274-0.789c0.111-0.28,0.22-0.549,0.326-0.809
			c0.105-0.259,0.199-0.522,0.283-0.788c0.07-0.266,0.158-0.529,0.263-0.789c0.105-0.259,0.214-0.515,0.326-0.767
			c0.182-0.504,0.392-1.009,0.631-1.514C299.523,84.135,299.737,83.623,299.926,83.104z"/>
		<path d="M296.624,78.425c0.302-0.133,0.592-0.235,0.873-0.305c0.449-0.196,0.896-0.361,1.346-0.494
			c0.449-0.133,0.89-0.256,1.325-0.368c0.154-0.028,0.311-0.057,0.473-0.085c0.161-0.027,0.305-0.056,0.431-0.084
			c0.617-0.139,1.223-0.274,1.82-0.399c0.595-0.127,1.195-0.245,1.798-0.357c0.295-0.056,0.592-0.109,0.894-0.158
			c0.301-0.048,0.606-0.091,0.915-0.126c0.308-0.035,0.616-0.045,0.925-0.031c0.308,0.014,0.617,0.056,0.926,0.126
			c0.014-0.027,0.024-0.031,0.031-0.01c0.007,0.021,0.024,0.01,0.052-0.031V76.08c0.028-0.014,0.031-0.024,0.01-0.031
			c-0.021-0.007-0.024-0.039-0.01-0.094c0.028-0.057,0.042-0.07,0.042-0.042s0.007,0.021,0.021-0.022
			c0.015-0.042,0.018-0.069,0.012-0.084c-0.007-0.014-0.012-0.056-0.012-0.126c0.043,0,0.064-0.014,0.064-0.042
			c0.027-0.014,0.024-0.031-0.01-0.052c-0.036-0.021-0.053-0.06-0.053-0.116c0.015-0.07,0.036-0.087,0.064-0.052
			c0.027,0.036,0.042,0.039,0.042,0.01c-0.182-0.211-0.365-0.343-0.547-0.399c-0.182-0.056-0.371-0.112-0.568-0.169
			c-0.168-0.027-0.326-0.038-0.473-0.031c-0.147,0.007-0.291-0.003-0.431-0.031c-0.631,0-1.255,0.036-1.872,0.106
			c-0.617,0.07-1.226,0.168-1.829,0.294c-0.323,0.07-0.631,0.14-0.926,0.211c-0.295,0.07-0.603,0.147-0.926,0.232
			c-0.617,0.21-1.23,0.431-1.84,0.662c-0.61,0.231-1.21,0.487-1.799,0.767c-0.449,0.196-0.904,0.396-1.367,0.6
			c-0.462,0.203-0.925,0.431-1.388,0.683c-0.154,0.084-0.308,0.172-0.462,0.263c-0.155,0.091-0.302,0.227-0.442,0.41
			c-0.028,0.126-0.021,0.235,0.022,0.326c0.042,0.091,0.09,0.157,0.147,0.199c0.139,0.085,0.29,0.092,0.452,0.021
			c0.161-0.069,0.312-0.147,0.453-0.231c0.168-0.07,0.326-0.148,0.473-0.232s0.298-0.161,0.452-0.232
			C296.025,78.709,296.323,78.558,296.624,78.425z"/>
		<path d="M316.919,86.459c0.161-0.021,0.319-0.06,0.474-0.115c0-0.028,0.006-0.049,0.021-0.064c-0.113,0.028-0.19,0.028-0.232,0
			c0.154-0.042,0.298-0.063,0.431-0.063c0.133,0,0.242-0.042,0.326-0.126c-0.056,0-0.115,0.007-0.178,0.021
			c-0.064,0.014-0.109,0.007-0.137-0.021c0.169-0.014,0.298-0.045,0.389-0.094c0.091-0.049,0.2-0.095,0.326-0.137
			c-0.07,0.015-0.144,0.021-0.22,0.021c-0.078,0-0.13-0.021-0.158-0.063c0.014-0.028,0.042-0.039,0.084-0.031
			c0.043,0.007,0.064-0.01,0.064-0.052c-0.561,0.056-1.059,0.102-1.494,0.136c-0.435,0.036-0.845,0.078-1.23,0.127
			c-0.386,0.049-0.779,0.108-1.178,0.178c-0.399,0.07-0.851,0.169-1.356,0.295c-0.169-0.477-0.407-0.876-0.715-1.199
			c-0.308-0.322-0.677-0.581-1.104-0.778c-0.429-0.196-0.901-0.343-1.42-0.441c-0.519-0.099-1.059-0.161-1.618-0.19
			c-0.589-0.027-1.217-0.01-1.883,0.052c-0.667,0.064-1.307,0.088-1.925,0.074c-0.126,0.028-0.253,0.007-0.378-0.064
			c0.154-0.56,0.396-1.065,0.725-1.514c0.329-0.449,0.676-0.863,1.041-1.241c0.112-0.139,0.229-0.28,0.347-0.42
			c0.119-0.14,0.256-0.253,0.411-0.336c0.574-0.392,1.226-0.764,1.955-1.114c0.197-0.085,0.375-0.175,0.537-0.274
			c0.161-0.099,0.34-0.182,0.537-0.253c0.238-0.097,0.497-0.175,0.778-0.232c0.28-0.056,0.553-0.084,0.82-0.084
			c-0.028,0.154-0.066,0.305-0.115,0.452c-0.049,0.148-0.099,0.295-0.147,0.442c-0.049,0.147-0.088,0.298-0.116,0.452
			c-0.028,0.154-0.035,0.323-0.021,0.505c0.07,0.042,0.127,0.039,0.169-0.01s0.09-0.081,0.147-0.095
			c0.042-0.014,0.07-0.017,0.084-0.01c0.015,0.007,0.042,0.018,0.085,0.031c0.069,0,0.136-0.01,0.199-0.031
			c0.063-0.021,0.13-0.024,0.2-0.01c0.027-0.042,0.042-0.087,0.042-0.136c0-0.049,0.049-0.06,0.147-0.031
			c0.015-0.084,0.042-0.165,0.085-0.242c0.042-0.077,0.084-0.151,0.126-0.221c0.07-0.154,0.154-0.357,0.253-0.609
			c0.042-0.154,0.084-0.287,0.126-0.4c0.042-0.112,0.077-0.244,0.105-0.399c-0.028-0.027-0.039-0.024-0.031,0.01
			c0.007,0.036-0.018,0.039-0.073,0.01c0.028-0.084,0.052-0.171,0.073-0.263c0.021-0.09,0.018-0.186-0.01-0.283
			c-0.112-0.028-0.189-0.07-0.231-0.127c-0.043-0.056-0.092-0.097-0.148-0.126c-0.168-0.154-0.371-0.232-0.61-0.232
			c-0.238,0-0.498,0.015-0.778,0.042c-0.126,0.015-0.266,0.025-0.42,0.031c-0.155,0.007-0.288,0.025-0.399,0.053
			c-0.477,0.07-0.93,0.193-1.356,0.368c-0.429,0.175-0.824,0.382-1.189,0.621c-1.43,0.827-2.685,1.878-3.764,3.154
			c-0.112,0.14-0.229,0.287-0.347,0.441c-0.119,0.155-0.235,0.344-0.347,0.568c-0.099,0.168-0.19,0.368-0.274,0.6
			c-0.084,0.231-0.126,0.452-0.126,0.662c0,0.196,0.048,0.365,0.147,0.504c0.097,0.14,0.19,0.245,0.274,0.316
			c0.112,0.07,0.214,0.112,0.305,0.127c0.091,0.014,0.199,0.042,0.326,0.084c0.069,0.028,0.133,0.056,0.189,0.084
			c0.057,0.028,0.112,0.049,0.169,0.063c0.181,0.07,0.378,0.102,0.588,0.094c0.211-0.006,0.414-0.024,0.61-0.052
			c0.631-0.069,1.248-0.133,1.851-0.189c0.603-0.057,1.206-0.078,1.808-0.063c0.491,0,0.968,0.091,1.43,0.273
			c0.463,0.182,0.842,0.386,1.136,0.61c0.154,0.155,0.287,0.354,0.399,0.6c0.112,0.245,0.154,0.494,0.126,0.746
			c-1.219,0.365-2.363,0.754-3.428,1.168c-1.065,0.413-2.079,0.89-3.039,1.43c-0.96,0.54-1.878,1.171-2.755,1.893
			c-0.876,0.721-1.742,1.566-2.598,2.534c-0.139,0.182-0.284,0.368-0.431,0.558c-0.148,0.189-0.214,0.403-0.2,0.642
			c0,0.126,0.025,0.22,0.074,0.284c0.049,0.063,0.112,0.105,0.189,0.126c0.078,0.021,0.161,0.031,0.253,0.031
			c0.091,0,0.178,0,0.263,0c0.098,0.028,0.186,0.06,0.262,0.094c0.078,0.036,0.172,0.039,0.284,0.01c0.211,0,0.498-0.06,0.863-0.178
			c0.364-0.12,0.725-0.245,1.083-0.378c0.357-0.134,0.666-0.249,0.926-0.347c0.259-0.099,0.382-0.127,0.368-0.085
			c0.603-0.294,1.023-0.497,1.262-0.609c0.238-0.113,0.385-0.176,0.441-0.19c0.039-0.009,0.056-0.012,0.055-0.008
			c0.017-0.009,0.043-0.023,0.082-0.044c0.091-0.049,0.291-0.154,0.6-0.316c0.308-0.161,0.821-0.438,1.536-0.831
			c0.181-0.112,0.361-0.227,0.536-0.347c0.175-0.118,0.312-0.241,0.411-0.368c0.154-0.056,0.283-0.126,0.389-0.21
			c0.105-0.085,0.22-0.161,0.347-0.232c0.042-0.028,0.056-0.049,0.042-0.063c-0.015-0.015-0.007-0.028,0.021-0.042
			c0.07-0.015,0.123-0.046,0.157-0.095c0.036-0.049,0.081-0.087,0.137-0.115c0.504-0.378,0.981-0.792,1.43-1.241
			c0.154-0.154,0.316-0.336,0.484-0.546c0.111-0.112,0.202-0.217,0.273-0.316c0.07-0.099,0.148-0.203,0.232-0.316
			c0.112-0.182,0.217-0.368,0.316-0.558c0.098-0.189,0.182-0.382,0.253-0.579c0.042-0.069,0.112-0.111,0.21-0.126
			c0.099-0.014,0.182-0.042,0.253-0.084l0.127-0.084c0.154-0.07,0.322-0.119,0.504-0.148c0.182-0.027,0.35-0.077,0.505-0.147
			c0.042,0,0.077-0.01,0.105-0.031c0.027-0.021,0.056-0.039,0.084-0.053c0.169-0.056,0.259-0.09,0.274-0.105
			c0.014-0.014,0.052-0.024,0.115-0.031c0.063-0.007,0.193-0.028,0.389-0.063c0.197-0.035,0.547-0.109,1.052-0.221
			C316.579,86.505,316.757,86.48,316.919,86.459z M311.083,88.005c0.014,0,0.027-0.004,0.042-0.01
			c0.014-0.007,0.035-0.01,0.063-0.01c-0.168,0.588-0.54,1.159-1.114,1.714c-0.576,0.553-1.241,1.072-1.998,1.556
			c-0.758,0.484-1.549,0.918-2.376,1.304c-0.828,0.386-1.578,0.704-2.251,0.957c-0.673,0.253-1.213,0.428-1.62,0.526
			c-0.407,0.097-0.568,0.09-0.483-0.021c0.056-0.057,0.102-0.124,0.136-0.2c0.035-0.078,0.087-0.144,0.158-0.2
			c0.293-0.266,0.528-0.477,0.704-0.631c0.175-0.154,0.353-0.311,0.536-0.473c0.182-0.161,0.407-0.344,0.673-0.547
			c0.266-0.203,0.652-0.486,1.157-0.851c0.518-0.323,0.968-0.603,1.346-0.842c0.378-0.238,0.725-0.441,1.041-0.609
			c0.316-0.169,0.613-0.323,0.894-0.463c0.28-0.139,0.574-0.274,0.883-0.399s0.652-0.263,1.03-0.41
			c0.378-0.148,0.827-0.326,1.346-0.537C311.209,87.927,311.152,87.977,311.083,88.005z M315.888,86.616
			c-0.035-0.014-0.067-0.014-0.094,0c0.014-0.014,0.07-0.021,0.168-0.021C315.948,86.623,315.923,86.631,315.888,86.616z"/>
		<path d="M305.509,93.851c0.009-0.004,0.012-0.007,0.013-0.008C305.499,93.855,305.493,93.859,305.509,93.851z"/>
		<path d="M344.122,83.882c0.056,0.028,0.094,0.036,0.115,0.021c0.021-0.014,0.045-0.021,0.073-0.021
			c0.043-0.056,0.109-0.102,0.2-0.136c0.091-0.035,0.151-0.087,0.179-0.158c0.027,0,0.042-0.003,0.042-0.01
			c0-0.006,0.014-0.003,0.042,0.01c0-0.042,0.024-0.084,0.073-0.126c0.049-0.042,0.066-0.084,0.052-0.126
			c0.056,0.028,0.081,0.014,0.073-0.042c-0.007-0.057,0.01-0.07,0.053-0.043c0-0.027,0.006-0.045,0.021-0.052
			c0.014-0.006,0.014-0.024,0-0.052c0.111-0.056,0.186-0.165,0.22-0.326c0.035-0.16,0.003-0.298-0.094-0.41
			c-0.015,0-0.031-0.007-0.052-0.021c-0.021-0.014-0.046-0.021-0.073-0.021c-0.07-0.084-0.161-0.106-0.274-0.063
			c-0.112,0.042-0.224,0.112-0.336,0.21c-0.112,0.099-0.211,0.203-0.295,0.316s-0.12,0.19-0.105,0.232
			c-0.015,0.056-0.036,0.126-0.064,0.21c-0.028,0.085-0.045,0.169-0.052,0.253c-0.007,0.085,0.003,0.158,0.031,0.221
			C343.982,83.809,344.038,83.855,344.122,83.882z"/>
		<path d="M355.835,85.901c-0.042,0-0.056-0.014-0.042-0.042c0.112-0.112,0.242-0.192,0.389-0.242
			c0.148-0.048,0.291-0.115,0.432-0.199c-0.085,0.028-0.134,0.035-0.148,0.021c0.028-0.028,0.063-0.045,0.106-0.052
			c0.042-0.007,0.077-0.039,0.105-0.094c-0.028,0.027-0.042,0.027-0.042,0c0.042-0.057,0.087-0.088,0.136-0.095
			c0.049-0.006,0.088-0.038,0.115-0.094c-0.027,0-0.045,0.01-0.052,0.031c-0.007,0.021-0.039,0.025-0.094,0.01
			c0-0.028,0.003-0.042,0.01-0.042c0.007,0,0.01-0.007,0.01-0.021c-0.028,0-0.042,0.007-0.042,0.021
			c0,0.014-0.014,0.007-0.042-0.021c0.028-0.014,0.052-0.018,0.073-0.01c0.021,0.007,0.039,0.003,0.052-0.01
			c0-0.014,0.007-0.021,0.021-0.021s0.021-0.007,0.021-0.021c-0.322,0.084-0.624,0.196-0.904,0.336
			c-0.281,0.14-0.561,0.287-0.842,0.441c0.014,0,0.021,0.007,0.021,0.021c-0.112,0.015-0.21,0.046-0.295,0.094
			c-0.084,0.049-0.161,0.103-0.231,0.158c-0.028,0-0.06,0.014-0.095,0.042c-0.035,0.028-0.066,0.057-0.094,0.084h-0.063
			c-0.084,0.07-0.232,0.155-0.441,0.253c-0.211,0.099-0.432,0.211-0.662,0.336c-0.232,0.126-0.453,0.26-0.663,0.399
			c-0.211,0.14-0.357,0.281-0.442,0.42c0.042-0.196,0.102-0.389,0.179-0.578c0.077-0.19,0.129-0.389,0.157-0.6
			c0.057-0.112,0.095-0.235,0.116-0.368c0.021-0.133,0.052-0.256,0.094-0.368c0.028-0.127,0.031-0.232,0.01-0.316
			c-0.021-0.084-0.088-0.182-0.2-0.295c-0.028-0.028-0.063-0.039-0.105-0.031s-0.07-0.003-0.084-0.031
			c-0.057,0.014-0.102,0.01-0.137-0.01c-0.035-0.021-0.073-0.031-0.115-0.031c-0.112,0-0.193,0.031-0.242,0.094
			c-0.049,0.063-0.094,0.115-0.136,0.157c-0.07,0.07-0.102,0.113-0.094,0.127c0.006,0.014-0.004,0.056-0.031,0.126
			c0,0.07-0.043,0.13-0.127,0.179c-0.084,0.049-0.161,0.102-0.232,0.157c-0.07,0.07-0.144,0.148-0.22,0.232
			c-0.078,0.084-0.151,0.147-0.221,0.189c-0.281,0.239-0.568,0.477-0.862,0.715c-0.295,0.239-0.583,0.456-0.863,0.652
			c-0.07,0.028-0.126,0.057-0.168,0.085c-0.043,0.028-0.099,0.07-0.169,0.126c-0.126,0.07-0.235,0.136-0.326,0.2
			c-0.091,0.063-0.193,0.129-0.305,0.199c-0.028,0.015-0.06,0.028-0.094,0.042c-0.036,0.015-0.081,0.007-0.137-0.021
			c0-0.027,0.01-0.063,0.033-0.105c0.021-0.042,0.031-0.084,0.031-0.126c0.069-0.224,0.157-0.428,0.262-0.61
			c0.106-0.182,0.214-0.357,0.326-0.526c0.112-0.097,0.208-0.217,0.284-0.357c0.078-0.139,0.186-0.245,0.326-0.316
			c0.057-0.084,0.123-0.168,0.2-0.253c0.077-0.084,0.157-0.16,0.242-0.231c0.027-0.112,0.084-0.196,0.168-0.253
			c0.084-0.056,0.161-0.118,0.232-0.19c0.056-0.111,0.126-0.202,0.21-0.273c0.085-0.07,0.175-0.14,0.274-0.211
			c0.07-0.084,0.19-0.186,0.357-0.305c0.169-0.118,0.316-0.232,0.442-0.336c0.126-0.105,0.199-0.199,0.22-0.284
			c0.021-0.084-0.081-0.133-0.305-0.147c-0.028,0-0.07,0.003-0.126,0.01c-0.057,0.007-0.112,0.024-0.169,0.052
			c-0.154,0.057-0.308,0.136-0.462,0.242c-0.154,0.105-0.308,0.199-0.462,0.284c-0.028,0-0.07,0.021-0.127,0.063
			c-0.056,0.042-0.12,0.084-0.189,0.126c-0.07,0.042-0.134,0.084-0.19,0.127c-0.056,0.042-0.091,0.07-0.105,0.084
			c-0.084,0.084-0.229,0.227-0.431,0.431c-0.203,0.203-0.418,0.42-0.642,0.652c-0.159,0.164-0.305,0.324-0.44,0.481
			c-0.007-0.002-0.014-0.004-0.023-0.008c-0.015-0.056-0.021-0.066-0.021-0.031c0,0.036-0.028,0.06-0.085,0.074
			c-0.154,0.027-0.287,0.077-0.399,0.147c-0.112,0.07-0.224,0.14-0.336,0.211c-0.07,0.042-0.172,0.091-0.305,0.147
			c-0.133,0.057-0.248,0.099-0.347,0.126c-0.35,0.127-0.701,0.274-1.051,0.442c-0.35,0.168-0.67,0.319-0.957,0.452
			c-0.287,0.133-0.529,0.239-0.725,0.316c-0.196,0.078-0.316,0.094-0.357,0.052c-0.042-0.042-0.042-0.133,0-0.274
			c0.042-0.139,0.112-0.305,0.211-0.494c0.097-0.19,0.202-0.389,0.316-0.6c0.111-0.211,0.217-0.413,0.316-0.61
			c0.027-0.014,0.042-0.035,0.042-0.063c0-0.028,0.014-0.049,0.042-0.063c0.014-0.014,0.024-0.018,0.031-0.01
			c0.006,0.007,0.017,0.003,0.031-0.01c0.028-0.056,0.049-0.109,0.063-0.158c0.014-0.048,0.035-0.094,0.063-0.136
			c0.07-0.112,0.099-0.217,0.085-0.316c0.027-0.07,0.038-0.133,0.031-0.19c-0.007-0.056-0.018-0.133-0.031-0.231
			c-0.015-0.07-0.046-0.127-0.095-0.169c-0.049-0.042-0.094-0.091-0.136-0.147c-0.042,0.028-0.094,0.024-0.158-0.01
			c-0.063-0.035-0.123-0.039-0.178-0.01c-0.099,0.014-0.203,0.056-0.316,0.126c-0.192,0.274-0.369,0.572-0.534,0.891
			c-0.079,0.011-0.15,0.019-0.212,0.024c-0.106,0.007-0.214,0.018-0.326,0.031c-0.113,0.014-0.246,0.031-0.4,0.052
			c-0.154,0.021-0.343,0.052-0.567,0.094c-0.155,0-0.302,0.004-0.442,0.01c-0.139,0.007-0.28,0.025-0.42,0.053
			c-0.196,0.028-0.425,0.066-0.683,0.115c-0.26,0.049-0.519,0.105-0.778,0.168c-0.26,0.064-0.519,0.124-0.779,0.179
			c-0.259,0.057-0.486,0.091-0.683,0.105c0.197-0.21,0.449-0.533,0.758-0.968c0.308-0.434,0.603-0.904,0.883-1.409
			c0.281-0.504,0.516-1.009,0.704-1.514c0.19-0.505,0.263-0.939,0.221-1.304c-0.042-0.281-0.115-0.543-0.221-0.789
			c-0.105-0.244-0.22-0.473-0.347-0.683c-0.126-0.196-0.273-0.399-0.441-0.609c-0.168-0.211-0.35-0.393-0.547-0.547
			c-0.365-0.295-0.809-0.516-1.335-0.662c-0.525-0.147-1.076-0.253-1.65-0.316c-0.576-0.063-1.154-0.091-1.736-0.084
			c-0.582,0.007-1.111,0.024-1.587,0.052c-0.336,0.014-0.662,0.042-0.978,0.084c-0.316,0.042-0.628,0.07-0.936,0.084
			c-0.112-0.181-0.242-0.34-0.389-0.473c-0.148-0.133-0.362-0.221-0.642-0.263c-0.042,0.028-0.088,0.057-0.137,0.084
			c-0.049,0.028-0.108,0.057-0.178,0.085v0.042c0,0.014-0.007,0.021-0.021,0.021c-0.112,0.014-0.193,0.06-0.242,0.136
			c-0.049,0.078-0.094,0.158-0.136,0.242v0.148c-0.057,0.056-0.099,0.123-0.127,0.199c-0.028,0.078-0.063,0.151-0.105,0.221
			c-0.841,0.196-1.661,0.449-2.46,0.757c-0.8,0.308-1.57,0.617-2.314,0.926c-0.336,0.14-0.659,0.277-0.968,0.41
			c-0.308,0.133-0.624,0.277-0.947,0.431c-0.211,0.127-0.428,0.245-0.652,0.357c-0.224,0.113-0.434,0.224-0.631,0.337
			c-0.084,0.057-0.168,0.103-0.253,0.137c-0.084,0.035-0.16,0.066-0.231,0.094c-0.028,0.028-0.106,0.088-0.232,0.179
			S319.6,82.13,319.6,82.2c0,0.042,0.035,0.095,0.105,0.158c0.07,0.063,0.126,0.115,0.168,0.157c0.07,0.07,0.14,0.112,0.211,0.127
			c0.07,0.014,0.154,0.035,0.253,0.063c0.042,0.028,0.081,0.052,0.115,0.073c0.036,0.021,0.067,0.031,0.094,0.031
			c0.197,0.028,0.351-0.003,0.463-0.094c0.112-0.091,0.231-0.179,0.357-0.263c0.084-0.084,0.196-0.151,0.336-0.2
			c0.139-0.048,0.274-0.108,0.399-0.178c0.14-0.042,0.266-0.109,0.378-0.2c0.112-0.091,0.224-0.171,0.336-0.241
			c0.435-0.253,0.806-0.453,1.114-0.6c0.309-0.148,0.624-0.284,0.947-0.41c0.323-0.127,0.697-0.266,1.126-0.421
			c0.427-0.154,0.984-0.357,1.672-0.609c0.056-0.028,0.105-0.06,0.147-0.095c0.042-0.035,0.084-0.017,0.126,0.052
			c0,0.099-0.021,0.166-0.063,0.2c-0.042,0.036-0.077,0.088-0.105,0.157l-0.253,0.652c-0.308,0.673-0.589,1.364-0.841,2.072
			c-0.253,0.708-0.513,1.433-0.779,2.176c-0.042,0.057-0.07,0.119-0.084,0.19c-0.014,0.07-0.028,0.161-0.042,0.273
			c-0.057,0.071-0.099,0.176-0.126,0.316c-0.085,0.281-0.193,0.6-0.326,0.957c-0.134,0.357-0.27,0.725-0.411,1.105
			c-0.139,0.378-0.273,0.754-0.399,1.125c-0.126,0.371-0.231,0.697-0.316,0.978c-0.645,0.295-1.255,0.561-1.829,0.799
			c-0.575,0.238-1.136,0.484-1.682,0.736c-0.547,0.253-1.087,0.537-1.62,0.852s-1.072,0.691-1.62,1.125
			c-0.07,0.085-0.15,0.158-0.242,0.221c-0.09,0.063-0.165,0.144-0.22,0.242c-0.154,0.139-0.316,0.301-0.484,0.483
			c-0.168,0.182-0.301,0.386-0.399,0.61c-0.028,0.07-0.066,0.151-0.115,0.242c-0.049,0.09-0.102,0.178-0.158,0.262
			c-0.069,0.295-0.038,0.516,0.095,0.662c0.133,0.148,0.283,0.263,0.452,0.347c0.099,0.043,0.186,0.067,0.263,0.074
			c0.077,0.006,0.157,0.024,0.241,0.052l0.19,0.084c0.576,0.154,1.171,0.211,1.787,0.169c0.617-0.043,1.192-0.113,1.724-0.211
			c0.085,0,0.166-0.018,0.242-0.052c0.078-0.036,0.172-0.052,0.284-0.052c0.028,0,0.039-0.015,0.031-0.042
			c-0.007-0.028,0.003-0.043,0.031-0.043c0.239-0.014,0.438-0.049,0.6-0.105c0.161-0.057,0.34-0.112,0.537-0.168
			c0.042-0.015,0.066-0.032,0.073-0.053c0.006-0.021,0.024-0.039,0.052-0.052c0.407-0.097,0.788-0.217,1.146-0.357
			c0.359-0.14,0.719-0.295,1.084-0.462h0.084c0.154-0.084,0.322-0.155,0.504-0.211c0.182-0.056,0.336-0.14,0.463-0.253
			c0.056,0,0.094-0.014,0.115-0.042s0.06-0.028,0.115,0c0.099-0.07,0.203-0.13,0.316-0.178c0.112-0.049,0.218-0.095,0.316-0.137
			c0.07-0.028,0.14-0.06,0.211-0.094c0.07-0.035,0.154-0.067,0.253-0.094c0.027,0,0.027-0.01,0-0.031
			c-0.028-0.021-0.028-0.025,0-0.01c0.196-0.085,0.385-0.158,0.567-0.221c0.182-0.063,0.365-0.144,0.547-0.242
			c0.253-0.084,0.491-0.193,0.715-0.326c0.224-0.133,0.435-0.262,0.631-0.389c0.112,0,0.203-0.028,0.274-0.084
			c0.07-0.057,0.139-0.105,0.211-0.148c0.35-0.154,0.673-0.343,0.966-0.567c0.295-0.224,0.61-0.428,0.947-0.61
			c0.281-0.197,0.561-0.404,0.842-0.621c0.28-0.217,0.561-0.425,0.841-0.621c0.099-0.07,0.196-0.14,0.295-0.21
			c0.099-0.07,0.19-0.14,0.274-0.211c0.097-0.084,0.193-0.151,0.284-0.2c0.091-0.049,0.171-0.123,0.242-0.22
			c0.111-0.07,0.21-0.14,0.294-0.211c0.085-0.07,0.169-0.154,0.253-0.253c0.169-0.112,0.333-0.241,0.495-0.389
			c0.16-0.147,0.319-0.298,0.473-0.452c0.182-0.154,0.323-0.274,0.42-0.357c0.099-0.084,0.196-0.161,0.295-0.232v0.021l0.042-0.042
			c0.182-0.028,0.432-0.073,0.747-0.136c0.314-0.064,0.641-0.133,0.977-0.211c0.336-0.077,0.659-0.144,0.968-0.2
			c0.308-0.056,0.547-0.09,0.715-0.105c0.043,0,0.193-0.021,0.453-0.063c0.259-0.042,0.533-0.091,0.82-0.148
			c0.287-0.056,0.547-0.115,0.779-0.178c0.098-0.027,0.173-0.051,0.227-0.074c-0.059,0.12-0.117,0.24-0.174,0.359
			c-0.042,0.112-0.091,0.231-0.148,0.357c-0.056,0.126-0.112,0.245-0.168,0.357c-0.028,0.112-0.067,0.217-0.115,0.316
			c-0.049,0.099-0.095,0.203-0.137,0.316c-0.07,0.21-0.126,0.399-0.168,0.567c-0.042,0.169-0.042,0.336,0,0.505
			c0.112,0.154,0.248,0.256,0.41,0.305c0.161,0.049,0.354,0.073,0.579,0.073c0.042,0,0.069,0.003,0.084,0.01
			c0.014,0.007,0.042-0.01,0.084-0.052c0.099,0.042,0.281-0.018,0.547-0.179c0.266-0.16,0.557-0.347,0.872-0.557
			c0.316-0.211,0.617-0.414,0.905-0.61c0.287-0.196,0.508-0.323,0.663-0.378c0.169-0.084,0.34-0.175,0.516-0.274
			c0.175-0.097,0.326-0.203,0.452-0.316c0.154-0.07,0.295-0.15,0.42-0.242c0.031-0.022,0.059-0.045,0.089-0.067
			c-0.02,0.036-0.036,0.069-0.047,0.098c-0.028,0-0.042,0.007-0.042,0.022c0,0.014-0.015,0.021-0.042,0.021
			c-0.028,0.07-0.06,0.144-0.095,0.22c-0.035,0.078-0.073,0.151-0.115,0.221c-0.028,0.084-0.057,0.182-0.084,0.295
			c-0.028,0.112-0.049,0.231-0.063,0.357c-0.015,0.126-0.015,0.245,0,0.357c0.014,0.112,0.048,0.211,0.105,0.295
			c0.056,0,0.091,0.014,0.105,0.042c0.014,0.028,0.035,0.049,0.063,0.063h-0.042c0.028,0.028,0.109,0.049,0.242,0.063
			c0.133,0.015,0.274,0.028,0.42,0.042c0.148,0.015,0.287,0.021,0.42,0.021c0.133,0,0.214-0.006,0.242-0.021
			c0.07-0.014,0.165-0.045,0.284-0.094s0.242-0.105,0.368-0.168c0.127-0.064,0.245-0.127,0.357-0.19
			c0.112-0.063,0.19-0.115,0.232-0.157c0.112-0.112,0.235-0.214,0.368-0.305c0.133-0.091,0.263-0.2,0.389-0.326
			c0.028-0.042,0.078-0.078,0.148-0.106c0.027-0.027,0.056-0.056,0.084-0.084c0.027-0.027,0.056-0.056,0.084-0.084
			c0-0.014,0.021-0.021,0.063-0.021c0.028-0.084,0.057-0.127,0.085-0.127c0.027,0.085,0.031,0.161,0.01,0.232
			c-0.021,0.07-0.046,0.14-0.074,0.211c-0.042,0.112-0.07,0.193-0.084,0.242c-0.014,0.049-0.031,0.094-0.052,0.136
			c-0.021,0.042-0.046,0.088-0.073,0.136c-0.028,0.049-0.07,0.124-0.127,0.221c0.028,0,0.018,0.063-0.031,0.19
			c-0.049,0.126-0.081,0.189-0.094,0.189c-0.015,0.015-0.046,0.039-0.094,0.073c-0.049,0.036-0.145,0.088-0.284,0.158
			c-0.084,0.056-0.203,0.157-0.357,0.305c-0.155,0.147-0.281,0.256-0.378,0.326c-0.646,0.574-1.325,1.216-2.04,1.924
			c-0.716,0.709-1.374,1.452-1.977,2.23c-0.603,0.778-1.094,1.567-1.473,2.366c-0.378,0.8-0.553,1.563-0.525,2.293
			c-0.042,0.014-0.018,0.094,0.073,0.242c0.091,0.147,0.214,0.277,0.368,0.389c0.169,0.07,0.34,0.094,0.516,0.073
			c0.175-0.021,0.347-0.06,0.515-0.115c0.912-0.365,1.708-0.897,2.387-1.599c0.68-0.701,1.28-1.49,1.799-2.366
			c0.518-0.876,0.978-1.791,1.377-2.744c0.399-0.954,0.788-1.859,1.167-2.713c0.07-0.155,0.13-0.316,0.179-0.484
			c0.048-0.168,0.136-0.295,0.262-0.378c0.043-0.097,0.102-0.172,0.179-0.221c0.077-0.048,0.165-0.108,0.263-0.178l0.168-0.127
			c0.07-0.056,0.137-0.105,0.2-0.147c0.063-0.042,0.136-0.077,0.221-0.105c0.111-0.112,0.231-0.211,0.357-0.295
			c0.126-0.084,0.252-0.169,0.378-0.253c0.112-0.084,0.277-0.199,0.494-0.347c0.217-0.147,0.442-0.301,0.673-0.462
			c0.232-0.161,0.445-0.316,0.642-0.463C355.632,86.08,355.765,85.971,355.835,85.901z M334.195,88.036
			c-0.196,0.161-0.382,0.316-0.558,0.462c-0.175,0.148-0.34,0.277-0.494,0.389c-0.154,0.112-0.281,0.19-0.378,0.232
			c-0.07,0.057-0.211,0.165-0.42,0.326c-0.211,0.161-0.463,0.34-0.758,0.537c-0.295,0.196-0.613,0.403-0.957,0.62
			c-0.343,0.218-0.679,0.421-1.009,0.61c-0.329,0.19-0.634,0.354-0.914,0.495c-0.281,0.139-0.505,0.231-0.673,0.273
			c-0.07,0.015-0.145,0.06-0.221,0.137c-0.078,0.077-0.165,0.115-0.263,0.115c-0.042,0.028-0.087,0.057-0.136,0.084
			c-0.049,0.028-0.088,0.057-0.115,0.085c-0.028,0-0.046,0.01-0.053,0.031c-0.007,0.021-0.024,0.017-0.052-0.01
			c-0.589,0.336-1.185,0.652-1.787,0.947c-0.603,0.294-1.22,0.581-1.851,0.862c-0.084,0.014-0.157,0.039-0.22,0.073
			c-0.064,0.036-0.124,0.067-0.179,0.095c-0.07,0-0.133,0.017-0.189,0.052c-0.057,0.035-0.106,0.073-0.148,0.115
			c-0.546,0.169-1.093,0.34-1.641,0.516c-0.546,0.175-1.135,0.319-1.766,0.431c-0.028,0-0.066,0.007-0.115,0.021
			c-0.049,0.014-0.102,0.028-0.158,0.042c-0.07-0.014-0.144-0.01-0.22,0.01c-0.078,0.021-0.172,0.045-0.284,0.073
			c-0.127-0.014-0.263-0.014-0.411,0c-0.147,0.015-0.293,0.022-0.441,0.022c-0.147,0-0.29-0.012-0.431-0.032
			c-0.14-0.021-0.266-0.073-0.378-0.157c0.014-0.197,0.066-0.357,0.157-0.484c0.091-0.126,0.172-0.252,0.242-0.378
			c-0.014-0.014-0.039-0.014-0.073,0c-0.036,0.015-0.06,0.007-0.074-0.021c0.057-0.084,0.113-0.151,0.169-0.199
			c0.057-0.049,0.115-0.091,0.178-0.127c0.064-0.035,0.127-0.073,0.19-0.115c0.063-0.042,0.123-0.105,0.179-0.19
			c0.014-0.028,0.018-0.045,0.01-0.052c-0.007-0.007-0.01-0.024-0.01-0.052c0.322-0.253,0.627-0.462,0.914-0.631
			c0.288-0.168,0.593-0.365,0.915-0.589c0.477-0.308,0.926-0.546,1.346-0.715c0.42-0.168,0.897-0.35,1.43-0.546
			c0.07-0.07,0.148-0.113,0.232-0.127c0.084-0.014,0.161-0.035,0.232-0.063c0.154-0.07,0.305-0.151,0.452-0.242
			s0.29-0.15,0.431-0.178c-0.042,0.238-0.091,0.476-0.147,0.715c-0.042,0.196-0.081,0.399-0.115,0.61
			c-0.036,0.21-0.06,0.371-0.074,0.483c-0.014,0.099-0.018,0.196-0.01,0.295c0.007,0.099,0.031,0.182,0.074,0.253
			c0.098,0,0.196,0.01,0.294,0.031c0.099,0.021,0.187,0.031,0.263,0.031c0.078,0,0.151-0.024,0.221-0.073
			c0.07-0.049,0.126-0.144,0.168-0.284c0.028,0,0.046-0.007,0.053-0.021c0.006-0.015,0.017-0.021,0.031-0.021
			c0.154-0.323,0.298-0.655,0.431-0.999c0.133-0.344,0.256-0.725,0.368-1.146c0.295-0.099,0.663-0.267,1.104-0.505
			c0.442-0.239,0.894-0.42,1.356-0.547c0.014,0.015,0.042-0.014,0.085-0.084c0.056-0.014,0.168-0.049,0.336-0.105
			c0.168-0.056,0.455-0.148,0.862-0.274c0.407-0.126,0.964-0.29,1.672-0.494s1.63-0.459,2.765-0.768
			c0.057,0.028,0.091,0.028,0.106,0c0.014-0.027,0.035-0.042,0.063-0.042c0.056-0.028,0.203-0.07,0.441-0.126
			c0.238-0.057,0.414-0.091,0.526-0.106C334.581,87.731,334.391,87.875,334.195,88.036z M336.971,85.585
			c-0.182,0.225-0.361,0.442-0.536,0.652c-0.176,0.211-0.326,0.378-0.453,0.505c-0.658,0.112-1.293,0.235-1.903,0.368
			c-0.61,0.133-1.21,0.277-1.799,0.431c-0.588,0.155-1.177,0.32-1.766,0.495c-0.589,0.175-1.198,0.354-1.829,0.536
			c-0.211,0.057-0.442,0.13-0.694,0.221c-0.253,0.091-0.513,0.182-0.779,0.274c-0.266,0.091-0.522,0.182-0.767,0.274
			c-0.245,0.091-0.473,0.165-0.683,0.22c0.028-0.154,0.094-0.378,0.2-0.673c0.105-0.295,0.213-0.6,0.325-0.914
			c0.112-0.316,0.224-0.61,0.336-0.884c0.112-0.274,0.19-0.474,0.232-0.6c0.084-0.238,0.186-0.473,0.305-0.704
			c0.12-0.232,0.214-0.466,0.284-0.704c0.07-0.211,0.144-0.438,0.221-0.683c0.077-0.245,0.171-0.474,0.283-0.683l0.379-0.757
			c0.014-0.07,0.024-0.133,0.031-0.19c0.006-0.056,0.01-0.105,0.01-0.147c0.042-0.112,0.087-0.224,0.136-0.336
			c0.049-0.112,0.109-0.232,0.179-0.359c0.027-0.126,0.066-0.238,0.115-0.336c0.049-0.097,0.102-0.202,0.157-0.314
			c0.057-0.14,0.085-0.232,0.085-0.274c0.014-0.07,0.056-0.14,0.126-0.211c0.056-0.196,0.148-0.413,0.274-0.652
			c0.097-0.168,0.178-0.319,0.242-0.452c0.063-0.133,0.157-0.326,0.283-0.579c0.477-0.056,0.996-0.133,1.557-0.232
			c0.561-0.097,1.168-0.165,1.82-0.199c0.651-0.035,1.346-0.007,2.082,0.084c0.736,0.091,1.511,0.291,2.324,0.6
			c0.406,0.154,0.729,0.449,0.968,0.883c0.238,0.435,0.343,0.877,0.316,1.325c-0.015,0.225-0.061,0.466-0.137,0.726
			c-0.078,0.259-0.168,0.515-0.274,0.767c-0.105,0.253-0.22,0.498-0.347,0.736c-0.126,0.239-0.253,0.449-0.378,0.631
			c-0.112,0.126-0.248,0.295-0.41,0.504C337.325,85.144,337.153,85.362,336.971,85.585z M342.597,86.312
			c0.02-0.012,0.048-0.027,0.084-0.043c-0.006,0.011-0.011,0.022-0.016,0.034C342.593,86.325,342.57,86.328,342.597,86.312z
			 M350.041,90.339c-0.035,0.027-0.039,0.069-0.01,0.126c-0.14,0.322-0.323,0.729-0.547,1.22c-0.224,0.491-0.476,1.013-0.757,1.566
			c-0.281,0.553-0.592,1.108-0.936,1.661c-0.344,0.553-0.708,1.066-1.093,1.536s-0.791,0.862-1.22,1.177
			c-0.427,0.316-0.872,0.508-1.335,0.579c-0.069-0.07-0.098-0.151-0.084-0.242c0.015-0.091,0-0.151-0.042-0.178
			c0.057-0.42,0.169-0.813,0.336-1.178c0.169-0.365,0.368-0.712,0.6-1.041s0.473-0.642,0.725-0.936
			c0.253-0.295,0.491-0.582,0.715-0.862c0.084-0.099,0.232-0.263,0.442-0.495c0.21-0.231,0.462-0.494,0.757-0.788
			c0.295-0.295,0.616-0.613,0.968-0.957c0.35-0.344,0.694-0.676,1.03-0.999c0.027-0.07,0.097-0.119,0.21-0.147
			c0.112-0.028,0.203-0.078,0.274-0.148C350.087,90.275,350.076,90.311,350.041,90.339z"/>
		<path d="M357.728,83.882c0.056,0.028,0.094,0.036,0.115,0.021c0.021-0.014,0.045-0.021,0.073-0.021
			c0.043-0.056,0.109-0.102,0.2-0.136c0.091-0.035,0.151-0.087,0.179-0.158c0.027,0,0.042-0.003,0.042-0.01
			c0-0.006,0.014-0.003,0.042,0.01c0-0.042,0.024-0.084,0.073-0.126c0.049-0.042,0.066-0.084,0.052-0.126
			c0.056,0.028,0.081,0.014,0.073-0.042c-0.007-0.057,0.01-0.07,0.053-0.043c0-0.027,0.006-0.045,0.021-0.052
			c0.014-0.006,0.014-0.024,0-0.052c0.111-0.056,0.186-0.165,0.22-0.326c0.035-0.16,0.003-0.298-0.094-0.41
			c-0.015,0-0.031-0.007-0.052-0.021c-0.021-0.014-0.046-0.021-0.073-0.021c-0.07-0.084-0.161-0.106-0.274-0.063
			c-0.112,0.042-0.224,0.112-0.337,0.21c-0.112,0.099-0.211,0.203-0.295,0.316c-0.084,0.112-0.119,0.19-0.105,0.232
			c-0.015,0.056-0.036,0.126-0.064,0.21c-0.028,0.085-0.045,0.169-0.052,0.253c-0.007,0.085,0.003,0.158,0.031,0.221
			C357.588,83.809,357.645,83.855,357.728,83.882z"/>
		<path d="M367.361,81.485c0-0.004,0.001-0.006,0.002-0.01c-0.005,0.009-0.01,0.017-0.013,0.028
			C367.356,81.5,367.361,81.495,367.361,81.485z"/>
		<path d="M363.617,82.326c0.533-0.127,1.096-0.224,1.693-0.295c0.595-0.07,1.146-0.14,1.651-0.211l0.021-0.042
			c0.042-0.028,0.091-0.042,0.147-0.042c0.057,0,0.12-0.021,0.19-0.063c0.014-0.014,0.021-0.049,0.021-0.106
			c0-0.025,0.004-0.046,0.009-0.066c-0.003,0.001-0.005,0.003-0.009,0.003c-0.014-0.027-0.028-0.052-0.042-0.073
			c-0.015-0.021-0.007-0.045,0.021-0.073c-0.182-0.07-0.354-0.102-0.516-0.094c-0.16,0.006-0.319,0.017-0.473,0.031
			c-0.239,0.028-0.404,0.045-0.494,0.052c-0.092,0.007-0.166,0.007-0.221,0c-0.057-0.007-0.126-0.007-0.211,0
			c-0.084,0.007-0.238,0.024-0.462,0.052c-0.154,0.028-0.316,0.052-0.484,0.073c-0.168,0.021-0.336,0.052-0.504,0.094h-0.021
			c0.139-0.308,0.284-0.609,0.431-0.904c0.148-0.295,0.291-0.596,0.431-0.905c0.182-0.323,0.344-0.659,0.484-1.009
			c0.139-0.35,0.287-0.694,0.441-1.03c0.028-0.07,0.046-0.133,0.052-0.19c0.007-0.056,0.025-0.112,0.053-0.168
			c0.056-0.07,0.101-0.137,0.136-0.2c0.035-0.063,0.039-0.123,0.01-0.178c-0.028-0.112-0.112-0.2-0.253-0.263
			c-0.14-0.063-0.28-0.094-0.42-0.094c-0.112,0-0.245,0.028-0.399,0.084c-0.155,0.057-0.245,0.105-0.274,0.147
			c-0.042,0.042-0.073,0.106-0.094,0.19c-0.021,0.084-0.046,0.161-0.074,0.232c-0.027,0.097-0.063,0.178-0.105,0.241
			c-0.042,0.064-0.07,0.13-0.084,0.2c-0.028,0.028-0.042,0.063-0.042,0.105c0,0.042-0.015,0.085-0.042,0.127
			c-0.028,0.097-0.078,0.203-0.148,0.316c-0.07,0.182-0.144,0.368-0.22,0.557c-0.078,0.19-0.166,0.375-0.263,0.558
			c-0.197,0.435-0.383,0.862-0.558,1.283c-0.175,0.42-0.34,0.848-0.494,1.283c-0.07,0.028-0.137,0.049-0.2,0.063
			c-0.063,0.014-0.13,0.028-0.2,0.042c-0.042,0-0.139,0.014-0.294,0.042c-0.155,0.028-0.323,0.063-0.505,0.105
			c-0.182,0.042-0.361,0.081-0.537,0.116c-0.175,0.035-0.311,0.066-0.41,0.094l-0.253,0.105c-0.027,0.057-0.059,0.12-0.094,0.19
			c-0.035,0.07-0.066,0.14-0.094,0.21c-0.028,0.113-0.042,0.211-0.042,0.295c0,0.085,0.035,0.148,0.105,0.19
			c0.015,0.028,0.046,0.039,0.094,0.031c0.049-0.007,0.109-0.018,0.179-0.031c0.056-0.014,0.108-0.042,0.157-0.084
			c0.049-0.043,0.095-0.078,0.137-0.106c0.097-0.027,0.199-0.059,0.305-0.094c0.105-0.035,0.199-0.066,0.284-0.094
			c0.238-0.112,0.437-0.193,0.599-0.242c0.161-0.049,0.333-0.087,0.516-0.115c-0.07,0.196-0.137,0.396-0.2,0.599
			c-0.063,0.204-0.13,0.411-0.199,0.621c-0.155,0.534-0.323,1.059-0.505,1.578c-0.103,0.294-0.198,0.593-0.288,0.896
			c-0.071,0.025-0.137,0.056-0.197,0.093c-0.112,0.07-0.224,0.14-0.337,0.211c-0.07,0.042-0.172,0.091-0.305,0.147
			c-0.133,0.057-0.248,0.099-0.347,0.126c-0.35,0.127-0.701,0.274-1.051,0.442c-0.35,0.168-0.67,0.319-0.957,0.452
			c-0.287,0.133-0.529,0.239-0.725,0.316c-0.196,0.078-0.316,0.094-0.357,0.052c-0.042-0.042-0.042-0.133,0-0.274
			c0.042-0.139,0.112-0.305,0.211-0.494c0.098-0.19,0.202-0.389,0.316-0.6c0.111-0.211,0.217-0.413,0.315-0.61
			c0.027-0.014,0.042-0.035,0.042-0.063c0-0.028,0.014-0.049,0.042-0.063c0.014-0.014,0.024-0.018,0.031-0.01
			c0.006,0.007,0.017,0.003,0.031-0.01c0.028-0.056,0.049-0.109,0.063-0.158c0.014-0.048,0.035-0.094,0.063-0.136
			c0.07-0.112,0.099-0.217,0.085-0.316c0.027-0.07,0.038-0.133,0.031-0.19c-0.007-0.056-0.018-0.133-0.031-0.231
			c-0.015-0.07-0.046-0.127-0.095-0.169c-0.049-0.042-0.094-0.091-0.136-0.147c-0.042,0.028-0.094,0.024-0.158-0.01
			c-0.063-0.035-0.123-0.039-0.178-0.01c-0.099,0.014-0.203,0.056-0.316,0.126c-0.197,0.281-0.378,0.586-0.547,0.915
			c-0.168,0.329-0.329,0.655-0.483,0.978c-0.042,0.112-0.091,0.231-0.148,0.357c-0.056,0.126-0.112,0.245-0.168,0.357
			c-0.028,0.112-0.067,0.217-0.115,0.316c-0.049,0.099-0.095,0.203-0.137,0.316c-0.07,0.21-0.126,0.399-0.168,0.567
			c-0.042,0.169-0.042,0.336,0,0.505c0.112,0.154,0.248,0.256,0.41,0.305c0.161,0.049,0.354,0.073,0.579,0.073
			c0.042,0,0.069,0.003,0.084,0.01c0.014,0.007,0.042-0.01,0.084-0.052c0.099,0.042,0.281-0.018,0.547-0.179
			c0.266-0.16,0.557-0.347,0.872-0.557c0.316-0.211,0.617-0.414,0.905-0.61c0.287-0.196,0.508-0.323,0.663-0.378
			c0.169-0.084,0.34-0.175,0.516-0.274c0.175-0.097,0.326-0.203,0.452-0.316c0.154-0.07,0.295-0.15,0.42-0.242
			c0.017-0.012,0.033-0.025,0.05-0.037c-0.016,0.059-0.034,0.116-0.049,0.175c-0.112,0.449-0.214,0.918-0.305,1.409
			c-0.091,0.491-0.151,0.996-0.179,1.515c0,0.069,0.007,0.139,0.021,0.21c0.015,0.07,0.078,0.133,0.19,0.19h0.021
			c0.056-0.028,0.123-0.046,0.2-0.052c0.077-0.007,0.136-0.025,0.178-0.053c0.07-0.014,0.099-0.031,0.084-0.052
			c-0.014-0.021,0.015-0.045,0.085-0.073c0.014-0.07,0.021-0.14,0.021-0.211c0-0.07,0.014-0.139,0.042-0.21l0.126-0.211
			c0.014-0.042,0.021-0.105,0.021-0.189c0-0.085,0.007-0.161,0.021-0.232c0.014-0.07,0.028-0.14,0.042-0.211
			c0.015-0.07,0.036-0.139,0.064-0.21c0-0.043,0.017-0.085,0.052-0.127c0.035-0.042,0.06-0.077,0.073-0.105
			c0.056-0.112,0.094-0.238,0.115-0.378s0.067-0.266,0.137-0.378c0.027-0.127,0.07-0.245,0.126-0.357
			c0.056-0.112,0.099-0.224,0.127-0.336c0.21-0.743,0.441-1.486,0.694-2.23c0.252-0.743,0.497-1.486,0.736-2.23L363.617,82.326z"/>
		<path d="M367.362,81.475c0.006-0.011,0.011-0.024,0.019-0.032C367.37,81.443,367.364,81.455,367.362,81.475z"/>
		<path d="M371.43,86.837c-0.078-0.063-0.32-0.017-0.725,0.137c-0.197,0.112-0.421,0.252-0.673,0.42
			c-0.253,0.168-0.498,0.295-0.737,0.378c-0.097,0.042-0.21,0.102-0.336,0.178c-0.126,0.078-0.241,0.137-0.347,0.179
			c-0.105,0.042-0.193,0.049-0.262,0.021c-0.071-0.028-0.106-0.133-0.106-0.316l0.127-0.462c0.042-0.085,0.066-0.148,0.073-0.19
			c0.006-0.042,0.017-0.097,0.031-0.168c0.028-0.099,0.07-0.161,0.126-0.19v-0.105c0.07-0.099,0.12-0.211,0.148-0.336
			c0.084-0.127,0.165-0.245,0.241-0.357c0.078-0.112,0.137-0.232,0.179-0.357c0-0.154-0.049-0.253-0.147-0.295
			c-0.099-0.042-0.176-0.078-0.232-0.106h-0.274c-0.028,0-0.07,0-0.126,0c-0.057,0-0.106,0.007-0.148,0.022
			c-0.028,0.027-0.042,0.063-0.042,0.105c0,0.042-0.007,0.078-0.021,0.105c-0.014,0.057-0.035,0.099-0.063,0.127
			c-0.028,0.027-0.049,0.063-0.063,0.105v0.021h-0.064c-0.112,0.154-0.227,0.266-0.347,0.337c-0.118,0.07-0.241,0.161-0.368,0.274
			c-0.462,0.35-0.911,0.683-1.346,0.999c-0.434,0.316-0.89,0.613-1.367,0.893c-0.084,0.085-0.196,0.148-0.336,0.19
			c0.014-0.112,0.063-0.217,0.148-0.316c0.084-0.097,0.139-0.211,0.168-0.336c0.056-0.07,0.109-0.144,0.158-0.221
			c0.048-0.077,0.115-0.136,0.199-0.178v-0.021v-0.021c0.057-0.042,0.085-0.091,0.085-0.148c0.098-0.042,0.178-0.102,0.241-0.178
			c0.063-0.078,0.13-0.144,0.2-0.2c0.112-0.112,0.232-0.224,0.357-0.337c0.126-0.112,0.245-0.217,0.357-0.316
			c0.07-0.056,0.133-0.108,0.19-0.157c0.056-0.049,0.118-0.109,0.189-0.179c0.112-0.07,0.224-0.144,0.336-0.221
			c0.112-0.077,0.224-0.129,0.336-0.157c0.028-0.084,0.066-0.136,0.115-0.157c0.049-0.022,0.095-0.032,0.137-0.032l0.042-0.042
			l0.253-0.168c0.126-0.112,0.259-0.196,0.399-0.253c0.056-0.028,0.112-0.039,0.168-0.031c0.057,0.007,0.106-0.01,0.148-0.052
			c0.056-0.028,0.097-0.078,0.126-0.148c0.028-0.069,0.021-0.126-0.021-0.168c0-0.084-0.035-0.158-0.105-0.221
			c-0.07-0.063-0.133-0.129-0.19-0.199c-0.112,0-0.21-0.021-0.295-0.064c-0.028,0.028-0.06,0.039-0.094,0.033
			c-0.035-0.007-0.067-0.01-0.094-0.01c-0.015,0-0.021,0.003-0.021,0.01c0,0.006-0.007,0.01-0.021,0.01
			c-0.197,0.056-0.341,0.136-0.432,0.241c-0.091,0.106-0.214,0.193-0.368,0.263c-0.084,0.015-0.238,0.109-0.462,0.284
			c-0.224,0.175-0.47,0.378-0.736,0.61c-0.266,0.231-0.519,0.459-0.757,0.683c-0.239,0.224-0.414,0.386-0.526,0.483
			c-0.126,0.182-0.26,0.357-0.399,0.526c-0.14,0.168-0.266,0.35-0.378,0.546c-0.085,0.113-0.165,0.236-0.242,0.369
			c-0.077,0.133-0.123,0.277-0.137,0.431c0,0.028-0.006,0.042-0.021,0.042c-0.014,0-0.021,0.007-0.021,0.021
			c-0.069,0.266-0.027,0.449,0.127,0.547c0.07,0.084,0.161,0.129,0.274,0.136c0.112,0.007,0.223,0.018,0.336,0.031
			c0.069,0.028,0.129,0.042,0.178,0.042c0.049,0,0.109,0,0.179,0c0.098,0.015,0.199-0.003,0.305-0.052
			c0.105-0.049,0.207-0.108,0.304-0.178c0.365-0.154,0.709-0.344,1.031-0.568c0.027-0.042,0.069-0.073,0.126-0.094
			c0.056-0.021,0.098-0.039,0.126-0.053c0.014,0,0.018-0.01,0.01-0.031c-0.007-0.021-0.003-0.031,0.01-0.031
			c0.028-0.027,0.067-0.056,0.116-0.084c0.048-0.028,0.087-0.07,0.115-0.126c0.097-0.043,0.179-0.099,0.242-0.169
			c0.063-0.07,0.129-0.147,0.199-0.232c0.042-0.027,0.078-0.052,0.106-0.073c0.027-0.021,0.056-0.038,0.084-0.052
			c0.014,0,0.024-0.01,0.031-0.031c0.007-0.021,0.024-0.024,0.052-0.01c-0.028,0.168-0.039,0.333-0.031,0.494
			c0.007,0.161,0.024,0.299,0.052,0.411c0.042,0.097,0.088,0.186,0.137,0.262c0.048,0.078,0.136,0.145,0.262,0.2
			c0.043,0.014,0.081,0.031,0.116,0.052c0.035,0.021,0.066,0.031,0.094,0.031c0.295,0.07,0.55,0.07,0.767,0
			c0.218-0.07,0.421-0.168,0.61-0.295c0.19-0.126,0.375-0.266,0.558-0.42c0.181-0.154,0.386-0.28,0.61-0.378
			c0.027,0.014,0.084-0.003,0.168-0.052c0.084-0.049,0.232-0.165,0.441-0.347c0.043-0.112,0.095-0.175,0.158-0.19
			c0.063-0.014,0.115-0.042,0.157-0.084C371.468,86.995,371.507,86.9,371.43,86.837z"/>
		<path d="M376.572,76.984c-0.028-0.042-0.078-0.099-0.147-0.169c-0.042-0.112-0.088-0.196-0.137-0.253
			c-0.049-0.056-0.13-0.097-0.241-0.126c-0.113-0.028-0.257-0.014-0.432,0.042c-0.175,0.057-0.277,0.127-0.305,0.211
			c-0.028,0.21-0.077,0.42-0.147,0.631c-0.084,0.266-0.175,0.55-0.274,0.851c-0.099,0.302-0.203,0.592-0.316,0.873
			c-0.14,0.378-0.277,0.751-0.41,1.114c-0.133,0.365-0.284,0.722-0.452,1.072v0.021c-0.07,0.169-0.166,0.4-0.284,0.695
			c-0.119,0.293-0.242,0.599-0.368,0.914c-0.127,0.316-0.246,0.625-0.357,0.926c-0.113,0.302-0.197,0.55-0.253,0.746
			c-0.028,0.057-0.049,0.116-0.063,0.179c-0.015,0.063-0.049,0.109-0.106,0.136v0.042l-0.021,0.021
			c0.014-0.014,0.028-0.021,0.042-0.021c-0.168,0.505-0.336,1.027-0.504,1.567c-0.169,0.54-0.302,1.111-0.399,1.714
			c-0.057,0.169-0.106,0.365-0.148,0.589s-0.07,0.435-0.084,0.631c0.014,0.084,0.045,0.147,0.094,0.189
			c0.049,0.042,0.088,0.099,0.116,0.169c0.084-0.015,0.144,0.024,0.178,0.115c0.035,0.091,0.109,0.137,0.221,0.137
			c0.056-0.015,0.098-0.046,0.126-0.095c0.028-0.049,0.078-0.073,0.148-0.073c-0.015-0.253,0.014-0.491,0.084-0.715
			c0.028-0.07,0.042-0.154,0.042-0.253c0.056-0.266,0.13-0.525,0.221-0.778c0.091-0.253,0.157-0.505,0.199-0.757
			c0.323-0.968,0.666-1.907,1.03-2.819c0.365-0.911,0.73-1.808,1.094-2.692c0.069-0.224,0.144-0.441,0.22-0.652
			c0.078-0.21,0.193-0.413,0.347-0.61c0.154-0.322,0.298-0.669,0.432-1.041c0.133-0.371,0.269-0.739,0.41-1.104
			c0.027-0.14,0.066-0.256,0.115-0.347c0.049-0.091,0.088-0.2,0.115-0.326c0.043-0.07,0.088-0.151,0.137-0.242
			c0.049-0.091,0.073-0.186,0.073-0.284C376.6,77.104,376.6,77.026,376.572,76.984z"/>
	</g>
</g>
<text transform="matrix(1 0 0 1 47.0868 39.5253)"><tspan x="0" y="0" class="st2 st3 st4">NUESTRAS</tspan><tspan x="154.469" y="0" class="st2 st5 st4"> MARCAS DESTACADAS</tspan></text>
</svg>
